STARTFONT 2.3
FONT -FontForge-Monofett-Book-R-Normal--12-120-72-72-P-66-ISO10646-1
SIZE 12 72 72  4
FONTBOUNDINGBOX 8 14 0 -2
COMMENT "Generated by fontforge, http://fontforge.sourceforge.net"
COMMENT "Copyright (c) 2011 by vernon adams. All rights reserved."
STARTPROPERTIES 41
FOUNDRY "FontForge"
FAMILY_NAME "Monofett"
WEIGHT_NAME "Book"
SLANT "R"
SETWIDTH_NAME "Normal"
ADD_STYLE_NAME ""
PIXEL_SIZE 12
POINT_SIZE 120
RESOLUTION_X 72
RESOLUTION_Y 72
SPACING "P"
AVERAGE_WIDTH 66
CHARSET_REGISTRY "ISO10646"
CHARSET_ENCODING "1"
FONTNAME_REGISTRY ""
CHARSET_COLLECTIONS "ISO8859-2 ISO8859-9 ISO8859-4 ISO10646-1"
BITS_PER_PIXEL 4
FONT_NAME "Monofett"
FACE_NAME "Monofett"
COPYRIGHT "Copyright (c) 2011 by vernon adams. All rights reserved."
FONT_VERSION "1.000"
FONT_ASCENT 10
FONT_DESCENT 2
UNDERLINE_POSITION -2
UNDERLINE_THICKNESS 1
X_HEIGHT 7
CAP_HEIGHT 7
RAW_ASCENT 799
RAW_DESCENT 200
NORM_SPACE 2
RELATIVE_WEIGHT 40
RELATIVE_SETWIDTH 50
SUPERSCRIPT_X 0
SUPERSCRIPT_Y 5
SUPERSCRIPT_SIZE 7
SUBSCRIPT_X 0
SUBSCRIPT_Y 1
SUBSCRIPT_SIZE 7
FIGURE_WIDTH 7
AVG_LOWERCASE_WIDTH 70
AVG_UPPERCASE_WIDTH 70
ENDPROPERTIES
CHARS 409
STARTCHAR uni000D
ENCODING 13
SWIDTH 144 0
DWIDTH 2 0
BBX 1 1 0 0
BITMAP
00
ENDCHAR
STARTCHAR space
ENCODING 32
SWIDTH 144 0
DWIDTH 2 0
BBX 1 1 0 0
BITMAP
00
ENDCHAR
STARTCHAR exclam
ENCODING 33
SWIDTH 424 0
DWIDTH 5 0
BBX 6 8 0 0
BITMAP
3C9C40
DF4FE0
FF6FF2
FF8FF2
FFBFF2
FFBFF2
DFFFE0
3CEC30
ENDCHAR
STARTCHAR quotedbl
ENCODING 34
SWIDTH 424 0
DWIDTH 5 0
BBX 6 8 0 0
BITMAP
3B9A40
DE4AE0
FFFFF2
FFFFF2
FFFFF2
FFFFF2
DFFFE0
3CEC30
ENDCHAR
STARTCHAR numbersign
ENCODING 35
SWIDTH 482 0
DWIDTH 6 0
BBX 6 8 0 0
BITMAP
3CFFB1
DE55E9
FD33DC
FD44FC
FB54FC
FFEEFC
DFFFF9
3CFEA1
ENDCHAR
STARTCHAR dollar
ENCODING 36
SWIDTH 578 0
DWIDTH 7 0
BBX 7 8 0 0
BITMAP
3CFBFB20
DE434DC0
FD67DFE0
FF944DF0
FE766DF0
FFB5BFE0
DFFFFFC0
3CFFFB20
ENDCHAR
STARTCHAR percent
ENCODING 37
SWIDTH 578 0
DWIDTH 7 0
BBX 7 8 0 0
BITMAP
3BDEEB20
D449BFC0
F766FFE0
FFF665E0
FFB944E0
FFFFFEE0
DFFFFFC0
3CFFFB20
ENDCHAR
STARTCHAR ampersand
ENCODING 38
SWIDTH 578 0
DWIDTH 7 0
BBX 7 8 0 0
BITMAP
3CB89B20
DF5DDFC0
FF7868E0
FF6C8AF0
FF5B7BF0
FFDAAFE0
DFFFFFC0
3CFFFB20
ENDCHAR
STARTCHAR quotesingle
ENCODING 39
SWIDTH 424 0
DWIDTH 5 0
BBX 6 8 0 0
BITMAP
3CAC40
DF6FE0
FFFFF2
FFFFF2
FFFFF2
FFFFF2
DFFFE0
3CEC30
ENDCHAR
STARTCHAR parenleft
ENCODING 40
SWIDTH 483 0
DWIDTH 6 0
BBX 6 8 0 0
BITMAP
3C99B1
DF5EFA
FE7FFC
FE7FFC
FE7FFC
FF4AFC
DFEEF9
3CFEA1
ENDCHAR
STARTCHAR parenright
ENCODING 41
SWIDTH 483 0
DWIDTH 6 0
BBX 6 8 0 0
BITMAP
3C8AB1
DFD5FA
FFF6FC
FFF6FC
FFF6FC
FF85FC
DFEFF9
3CFEA1
ENDCHAR
STARTCHAR asterisk
ENCODING 42
SWIDTH 428 0
DWIDTH 5 0
BBX 6 8 0 0
BITMAP
3BB940
DB14C0
FC35E2
FFEDF2
FFFFF2
FFFFF2
DFFFE0
3CEC40
ENDCHAR
STARTCHAR plus
ENCODING 43
SWIDTH 428 0
DWIDTH 5 0
BBX 6 8 0 0
BITMAP
3CAD40
DB4AE0
FC4BF2
FFBFF2
FFFFF2
FFFFF2
DFFFE0
3CEC40
ENDCHAR
STARTCHAR comma
ENCODING 44
SWIDTH 428 0
DWIDTH 5 0
BBX 6 8 0 0
BITMAP
3CFD40
DFFFE0
FFFFF2
FFFFF2
FFAFF2
FF6FF2
DFFFE0
3CEC40
ENDCHAR
STARTCHAR hyphen
ENCODING 45
SWIDTH 428 0
DWIDTH 5 0
BBX 6 8 0 0
BITMAP
3CFD40
DFFFE0
FA69F2
FFFFF2
FFFFF2
FFFFF2
DFFFE0
3CEC40
ENDCHAR
STARTCHAR period
ENCODING 46
SWIDTH 428 0
DWIDTH 5 0
BBX 6 8 0 0
BITMAP
3CFD40
DFFFE0
FFFFF2
FFFFF2
FFAFF2
FFBFF2
DFFFE0
3CEC40
ENDCHAR
STARTCHAR slash
ENCODING 47
SWIDTH 428 0
DWIDTH 5 0
BBX 6 8 0 0
BITMAP
3CDB40
DF8DE0
FF6FF2
FF6FF2
FF6FF2
FEBFF2
DFFFE0
3CEC40
ENDCHAR
STARTCHAR zero
ENCODING 48
SWIDTH 578 0
DWIDTH 7 0
BBX 7 8 0 0
BITMAP
3C987A20
DD6DC7C0
FD8FE7E0
FD8FE7F0
FE5BA7F0
FFBAAEE0
DFFFFFC0
3CFFFB20
ENDCHAR
STARTCHAR one
ENCODING 49
SWIDTH 578 0
DWIDTH 7 0
BBX 7 8 0 0
BITMAP
3CD8FB20
DFD5FFC0
FFF6FFE0
FFF6FFF0
FFF6FFF0
FFFCFFE0
DFFFFFC0
3CFFFB20
ENDCHAR
STARTCHAR two
ENCODING 50
SWIDTH 578 0
DWIDTH 7 0
BBX 7 8 0 0
BITMAP
3C988B20
DE9DA9C0
FFDB8AE0
FE5BBFF0
FD6BBEF0
FFAAAEE0
DFFFFFC0
3CFFFB20
ENDCHAR
STARTCHAR three
ENCODING 51
SWIDTH 578 0
DWIDTH 7 0
BBX 7 8 0 0
BITMAP
3B888B20
DCAD9AC0
FFDA6BE0
FFEC8AF0
FC8B7AF0
FFAAAFE0
DFFFFFC0
3CFFFB20
ENDCHAR
STARTCHAR four
ENCODING 52
SWIDTH 578 0
DWIDTH 7 0
BBX 7 8 0 0
BITMAP
3CAFAB20
DF6F6FC0
FF6F6FE0
FF593BF0
FFEC5DF0
FFFFCFE0
DFFFFFC0
3CFFFB20
ENDCHAR
STARTCHAR five
ENCODING 53
SWIDTH 578 0
DWIDTH 7 0
BBX 7 8 0 0
BITMAP
3C887A20
DE6DDFC0
FE366DE0
FFEFD8F0
FF8B98F0
FFCAAEE0
DFFFFFC0
3CFFFB20
ENDCHAR
STARTCHAR six
ENCODING 54
SWIDTH 578 0
DWIDTH 7 0
BBX 7 8 0 0
BITMAP
3C988A20
DF5CCEC0
FE366CE0
FE6FF6F0
FF4BB6F0
FFCAAEE0
DFFFFFC0
3CFFFB20
ENDCHAR
STARTCHAR seven
ENCODING 55
SWIDTH 578 0
DWIDTH 7 0
BBX 7 8 0 0
BITMAP
3CB87B20
DFED4FC0
FFFC8FE0
FFF6DFF0
FFF5FFF0
FFECFFE0
DFFFFFC0
3CFFFB20
ENDCHAR
STARTCHAR eight
ENCODING 56
SWIDTH 578 0
DWIDTH 7 0
BBX 7 8 0 0
BITMAP
3C988A20
DD7DB8C0
FD4878E0
FD6CB8F0
FD5B98F0
FFBAAEE0
DFFFFFC0
3CFFFB20
ENDCHAR
STARTCHAR nine
ENCODING 57
SWIDTH 578 0
DWIDTH 7 0
BBX 7 8 0 0
BITMAP
3C888A20
DC8DB8C0
FC7DA8E0
FF9878F0
FFBA89F0
FFBAAEE0
DFFFFFC0
3CFFFB20
ENDCHAR
STARTCHAR colon
ENCODING 58
SWIDTH 428 0
DWIDTH 5 0
BBX 6 8 0 0
BITMAP
3CFD40
DFFFE0
FFEFF2
FF7FF2
FFAFF2
FFBFF2
DFFFE0
3CEC40
ENDCHAR
STARTCHAR semicolon
ENCODING 59
SWIDTH 428 0
DWIDTH 5 0
BBX 6 8 0 0
BITMAP
3CFD40
DFFFE0
FFEFF2
FF8FF2
FFAFF2
FF6FF2
DFFFE0
3CEC40
ENDCHAR
STARTCHAR less
ENCODING 60
SWIDTH 482 0
DWIDTH 6 0
BBX 6 10 0 0
BITMAP
001100
3DFFB1
DFFFF9
FFEAFC
FF8FFC
FBBFFC
FF9DFC
EFFBFB
6FFFE4
026510
ENDCHAR
STARTCHAR equal
ENCODING 61
SWIDTH 482 0
DWIDTH 6 0
BBX 6 10 0 0
BITMAP
001100
3DFFC2
DFFFF9
FFFFFC
FE99EC
FE99EC
FFFFFC
EFFFFB
6FFFE4
036510
ENDCHAR
STARTCHAR greater
ENCODING 62
SWIDTH 482 0
DWIDTH 6 0
BBX 6 10 0 0
BITMAP
001100
3DFFC2
DFFFF9
FF9FFC
FFE9FC
FFF9EC
FFBBFC
EFBFFB
6FFFE4
036510
ENDCHAR
STARTCHAR question
ENCODING 63
SWIDTH 578 0
DWIDTH 7 0
BBX 7 8 0 0
BITMAP
3CC89B20
DFAEC9C0
FFFEB9E0
FFF79EF0
FFF9FFF0
FFFCFFE0
DFFFFFC0
3CFFFB20
ENDCHAR
STARTCHAR at
ENCODING 64
SWIDTH 578 0
DWIDTH 7 0
BBX 7 8 0 0
BITMAP
3B977A20
D6B9C6C0
F7ED69D0
F78849C0
F7B856D0
F979FEE0
DFFFFFC0
3CFFFB20
ENDCHAR
STARTCHAR A
ENCODING 65
SWIDTH 578 0
DWIDTH 7 0
BBX 7 8 0 0
BITMAP
3CB89B20
DF5D7DC0
FF5FABE0
FE3759F0
FC8FC8F0
FEDFECE0
DFFFFFC0
3CFFFB20
ENDCHAR
STARTCHAR B
ENCODING 66
SWIDTH 578 0
DWIDTH 7 0
BBX 7 8 0 0
BITMAP
3A788B20
DC8D8BC0
FC586CE0
FC7C8BF0
FC6B7BF0
FEAAAFE0
DFFFFFC0
3CFFFB20
ENDCHAR
STARTCHAR C
ENCODING 67
SWIDTH 578 0
DWIDTH 7 0
BBX 7 8 0 0
BITMAP
3C888B20
DD7DDFC0
FC8FFFE0
FC8FFFF0
FD5BBFF0
FFBAAFE0
DFFFFFC0
3CFFFB20
ENDCHAR
STARTCHAR D
ENCODING 68
SWIDTH 578 0
DWIDTH 7 0
BBX 7 8 0 0
BITMAP
3B787920
DE6DC6C0
FE7FF6E0
FE7FF6F0
FE5BA7F0
FFAAAEE0
DFFFFFC0
3CFFFB20
ENDCHAR
STARTCHAR E
ENCODING 69
SWIDTH 578 0
DWIDTH 7 0
BBX 7 8 0 0
BITMAP
3CA87A20
DF6DDFC0
FF69AFE0
FF6CCFF0
FF6BBEF0
FFCAADE0
DFFFFFC0
3CFFFB20
ENDCHAR
STARTCHAR F
ENCODING 70
SWIDTH 578 0
DWIDTH 7 0
BBX 7 8 0 0
BITMAP
3CA87A20
DF6DDFC0
FF588FE0
FF6DDFF0
FF6FFFF0
FFCFFFE0
DFFFFFC0
3CFFFB20
ENDCHAR
STARTCHAR G
ENCODING 71
SWIDTH 578 0
DWIDTH 7 0
BBX 7 8 0 0
BITMAP
3CA87A20
DF5DDEC0
FF6FDEE0
FF6E76F0
FF4BA7F0
FFCAAEE0
DFFFFFC0
3CFFFB20
ENDCHAR
STARTCHAR H
ENCODING 72
SWIDTH 578 0
DWIDTH 7 0
BBX 7 8 0 0
BITMAP
3BBFF720
DE7FF6C0
FE4886E0
FE6CC6F0
FE7FF6F0
FFCFFCE0
DFFFFFC0
3CFFFB20
ENDCHAR
STARTCHAR I
ENCODING 73
SWIDTH 578 0
DWIDTH 7 0
BBX 7 8 0 0
BITMAP
3C887820
DFD6CEC0
FFF7DFE0
FFF7DFF0
FFB5ADF0
FFAAADE0
DFFFFFC0
3CFFFB20
ENDCHAR
STARTCHAR J
ENCODING 74
SWIDTH 578 0
DWIDTH 7 0
BBX 7 8 0 0
BITMAP
3CFFAB20
DFFF6FC0
FFFF6FE0
FFFF6FF0
FFEA6FF0
FFDAEFE0
DFFFFFC0
3CFFFB20
ENDCHAR
STARTCHAR K
ENCODING 75
SWIDTH 578 0
DWIDTH 7 0
BBX 7 8 0 0
BITMAP
3CAFE620
DF6E5CC0
FF64CFE0
FF679FF0
FF6F7AF0
FFCFFCE0
DFFFFFC0
3CFFFB20
ENDCHAR
STARTCHAR L
ENCODING 76
SWIDTH 578 0
DWIDTH 7 0
BBX 7 8 0 0
BITMAP
3CCDFB20
DF9BFFC0
FF9BFFE0
FF9BFFF0
FF98BFF0
FFDAAFE0
DFFFFFC0
3CFFFB20
ENDCHAR
STARTCHAR M
ENCODING 77
SWIDTH 578 0
DWIDTH 7 0
BBX 7 8 0 0
BITMAP
3A7A7720
D8B5D5C0
F8D5F6E0
F8D9F6F0
F8DFF6F0
FCEFFCE0
DFFFFFC0
3CFFFB20
ENDCHAR
STARTCHAR N
ENCODING 78
SWIDTH 578 0
DWIDTH 7 0
BBX 7 8 0 0
BITMAP
3B888A20
DD6DB8C0
FD7FC8E0
FD7FC8F0
FD7FC8F0
FECFEDE0
DFFFFFC0
3CFFFB20
ENDCHAR
STARTCHAR O
ENCODING 79
SWIDTH 578 0
DWIDTH 7 0
BBX 7 8 0 0
BITMAP
3C987920
DE6DC7C0
FE7FE6E0
FE7FE6F0
FE5BA7F0
FFBAAEE0
DFFFFFC0
3CFFFB20
ENDCHAR
STARTCHAR P
ENCODING 80
SWIDTH 578 0
DWIDTH 7 0
BBX 7 8 0 0
BITMAP
3C988A20
DF6DA8C0
FF6FC8E0
FF466DF0
FF6FFFF0
FFCFFFE0
DFFFFFC0
3CFFFB20
ENDCHAR
STARTCHAR Q
ENCODING 81
SWIDTH 578 0
DWIDTH 7 0
BBX 7 8 0 0
BITMAP
3C987920
DE6DC6C0
FE7FF6E0
FE7FF6F0
FE5787F0
FFBA3EE0
DFFFEFC0
3CFFFB20
ENDCHAR
STARTCHAR R
ENCODING 82
SWIDTH 578 0
DWIDTH 7 0
BBX 7 8 0 0
BITMAP
3C788B20
DF5D7CC0
FF4C7DE0
FF496DF0
FF6FABF0
FFCFDDE0
DFFFFFC0
3CFFFB20
ENDCHAR
STARTCHAR S
ENCODING 83
SWIDTH 578 0
DWIDTH 7 0
BBX 7 8 0 0
BITMAP
3CA87A20
DF5DDEC0
FF499EE0
FFECA8F0
FFCB98F0
FFBAAEE0
DFFFFFC0
3CFFFB20
ENDCHAR
STARTCHAR T
ENCODING 84
SWIDTH 578 0
DWIDTH 7 0
BBX 7 8 0 0
BITMAP
3C887820
DFD6CEC0
FFF7DFE0
FFF7DFF0
FFF7DFF0
FFFCEFE0
DFFFFFC0
3CFFFB20
ENDCHAR
STARTCHAR U
ENCODING 85
SWIDTH 578 0
DWIDTH 7 0
BBX 7 8 0 0
BITMAP
3BBFE720
DD8FE7C0
FD8FE7E0
FD8FE7F0
FE5BA7F0
FFBAAEE0
DFFFFFC0
3CFFFB20
ENDCHAR
STARTCHAR V
ENCODING 86
SWIDTH 578 0
DWIDTH 7 0
BBX 7 8 0 0
BITMAP
3BBFE820
DF5FAAC0
FF5F6EE0
FF9B5FF0
FFD57FF0
FFFBEFE0
DFFFFFC0
3CFFFB20
ENDCHAR
STARTCHAR W
ENCODING 87
SWIDTH 578 0
DWIDTH 7 0
BBX 7 8 0 0
BITMAP
37FCF720
D6E3E5C0
F7D1C5E0
F99596F0
FB4A47F0
FFAFBEE0
DFFFFFC0
3CFFFB20
ENDCHAR
STARTCHAR X
ENCODING 88
SWIDTH 578 0
DWIDTH 7 0
BBX 7 8 0 0
BITMAP
3CBFE820
DF6D7CC0
FFE47FE0
FFD56FF0
FF6E8BF0
FFDFFDE0
DFFFFFC0
3CFFFB20
ENDCHAR
STARTCHAR Y
ENCODING 89
SWIDTH 578 0
DWIDTH 7 0
BBX 7 8 0 0
BITMAP
3C9FC820
DF6D6DC0
FFC75FE0
FFF3BFF0
FFF6EFF0
FFFCFFE0
DFFFFFC0
3CFFFB20
ENDCHAR
STARTCHAR Z
ENCODING 90
SWIDTH 578 0
DWIDTH 7 0
BBX 7 8 0 0
BITMAP
3CA88B20
DFED4FC0
FFF8CFE0
FFE6FFF0
FF69BEF0
FFCAAEE0
DFFFFFC0
3CFFFB20
ENDCHAR
STARTCHAR bracketleft
ENCODING 91
SWIDTH 484 0
DWIDTH 6 0
BBX 6 8 0 0
BITMAP
3CAAB2
DF7EFA
FF7EFD
FF7EFD
FF7EFD
FF7AFD
DFFFFA
3CFEB1
ENDCHAR
STARTCHAR backslash
ENCODING 92
SWIDTH 516 0
DWIDTH 6 0
BBX 7 8 0 0
BITMAP
3CBED500
DFABFF10
FFC8FF30
FFF6FF30
FFF5FF30
FFFCFF30
DFFFFE10
3CFFD400
ENDCHAR
STARTCHAR bracketright
ENCODING 93
SWIDTH 484 0
DWIDTH 6 0
BBX 6 8 0 0
BITMAP
3C9BB2
DFBAFA
FFBAFD
FFBAFD
FFBAFD
FF8AFD
DFFFFA
3CFEB1
ENDCHAR
STARTCHAR asciicircum
ENCODING 94
SWIDTH 355 0
DWIDTH 4 0
BBX 5 6 0 2
BITMAP
011000
2EF500
8B9C00
EBBE30
DFEF20
011100
ENDCHAR
STARTCHAR underscore
ENCODING 95
SWIDTH 428 0
DWIDTH 5 0
BBX 6 8 0 0
BITMAP
3CFD40
DFFFE0
FFFFF2
FFFFF2
FFFFF2
F756F2
DFFFE0
3CEC40
ENDCHAR
STARTCHAR grave
ENCODING 96
SWIDTH 308 0
DWIDTH 4 0
BBX 4 4 0 0
BITMAP
AFD1
E7D6
6EAA
0BD6
ENDCHAR
STARTCHAR a
ENCODING 97
SWIDTH 578 0
DWIDTH 7 0
BBX 7 8 0 0
BITMAP
3C988B20
DFDD7EC0
FFDC7EE0
FC594EF0
FC7B6EF0
FFBAAFE0
DFFFFFC0
3CFFFB20
ENDCHAR
STARTCHAR b
ENCODING 98
SWIDTH 578 0
DWIDTH 7 0
BBX 7 8 0 0
BITMAP
3A788B20
DC8D8BC0
FC586CE0
FC7C8BF0
FC6B7BF0
FEAAAFE0
DFFFFFC0
3CFFFB20
ENDCHAR
STARTCHAR c
ENCODING 99
SWIDTH 578 0
DWIDTH 7 0
BBX 7 8 0 0
BITMAP
3C888B20
DD7DDFC0
FC8FFFE0
FC8FFFF0
FD5BBFF0
FFBAAFE0
DFFFFFC0
3CFFFB20
ENDCHAR
STARTCHAR d
ENCODING 100
SWIDTH 578 0
DWIDTH 7 0
BBX 7 8 0 0
BITMAP
3B787920
DE6DC6C0
FE7FF6E0
FE7FF6F0
FE5BA7F0
FFAAAEE0
DFFFFFC0
3CFFFB20
ENDCHAR
STARTCHAR e
ENCODING 101
SWIDTH 578 0
DWIDTH 7 0
BBX 7 8 0 0
BITMAP
3C889B20
DC8D6DC0
FC364DE0
FC9FFFF0
FD488FF0
FFEDDFE0
DFFFFFC0
3CFFFB20
ENDCHAR
STARTCHAR f
ENCODING 102
SWIDTH 578 0
DWIDTH 7 0
BBX 7 8 0 0
BITMAP
3CA87A20
DF6DDFC0
FF588FE0
FF6DDFF0
FF6FFFF0
FFCFFFE0
DFFFFFC0
3CFFFB20
ENDCHAR
STARTCHAR g
ENCODING 103
SWIDTH 578 0
DWIDTH 7 0
BBX 7 8 0 0
BITMAP
3CA87A20
DF5DDEC0
FF6FDEE0
FF6E76F0
FF4BA7F0
FFCAAEE0
DFFFFFC0
3CFFFB20
ENDCHAR
STARTCHAR h
ENCODING 104
SWIDTH 578 0
DWIDTH 7 0
BBX 7 8 0 0
BITMAP
3BBFF720
DE7FF6C0
FE4886E0
FE6CC6F0
FE7FF6F0
FFCFFCE0
DFFFFFC0
3CFFFB20
ENDCHAR
STARTCHAR i
ENCODING 105
SWIDTH 578 0
DWIDTH 7 0
BBX 7 8 0 0
BITMAP
3C887820
DFD6CEC0
FFF7DFE0
FFF7DFF0
FFB5ADF0
FFAAADE0
DFFFFFC0
3CFFFB20
ENDCHAR
STARTCHAR j
ENCODING 106
SWIDTH 578 0
DWIDTH 7 0
BBX 7 8 0 0
BITMAP
3CFFAB20
DFFF6FC0
FFFF6FE0
FFFF6FF0
FFEA6FF0
FFDAEFE0
DFFFFFC0
3CFFFB20
ENDCHAR
STARTCHAR k
ENCODING 107
SWIDTH 578 0
DWIDTH 7 0
BBX 7 8 0 0
BITMAP
3CAFE620
DF6E5CC0
FF64CFE0
FF679FF0
FF6F7AF0
FFCFFCE0
DFFFFFC0
3CFFFB20
ENDCHAR
STARTCHAR l
ENCODING 108
SWIDTH 578 0
DWIDTH 7 0
BBX 7 8 0 0
BITMAP
3CCDFB20
DF9BFFC0
FF9BFFE0
FF9BFFF0
FF98BFF0
FFDAAFE0
DFFFFFC0
3CFFFB20
ENDCHAR
STARTCHAR m
ENCODING 109
SWIDTH 578 0
DWIDTH 7 0
BBX 7 8 0 0
BITMAP
3A7A7720
D8B5D5C0
F8D5F6E0
F8D9F6F0
F8DFF6F0
FCEFFCE0
DFFFFFC0
3CFFFB20
ENDCHAR
STARTCHAR n
ENCODING 110
SWIDTH 578 0
DWIDTH 7 0
BBX 7 8 0 0
BITMAP
3B888A20
DD6DB8C0
FD7FC8E0
FD7FC8F0
FD7FC8F0
FECFEDE0
DFFFFFC0
3CFFFB20
ENDCHAR
STARTCHAR o
ENCODING 111
SWIDTH 578 0
DWIDTH 7 0
BBX 7 8 0 0
BITMAP
3C987920
DE6DC7C0
FE7FE6E0
FE7FE6F0
FE5BA7F0
FFBAAEE0
DFFFFFC0
3CFFFB20
ENDCHAR
STARTCHAR p
ENCODING 112
SWIDTH 578 0
DWIDTH 7 0
BBX 7 8 0 0
BITMAP
3C988A20
DF6DA8C0
FF6FC8E0
FF466DF0
FF6FFFF0
FFCFFFE0
DFFFFFC0
3CFFFB20
ENDCHAR
STARTCHAR q
ENCODING 113
SWIDTH 578 0
DWIDTH 7 0
BBX 7 8 0 0
BITMAP
3C987920
DE6DC6C0
FE7FF6E0
FE7FF6F0
FE5787F0
FFBA3EE0
DFFFEFC0
3CFFFB20
ENDCHAR
STARTCHAR r
ENCODING 114
SWIDTH 578 0
DWIDTH 7 0
BBX 7 8 0 0
BITMAP
3C788B20
DF5D7CC0
FF4C7DE0
FF496DF0
FF6FABF0
FFCFDDE0
DFFFFFC0
3CFFFB20
ENDCHAR
STARTCHAR s
ENCODING 115
SWIDTH 578 0
DWIDTH 7 0
BBX 7 8 0 0
BITMAP
3CA87A20
DF5DDEC0
FF499EE0
FFECA8F0
FFCB98F0
FFBAAEE0
DFFFFFC0
3CFFFB20
ENDCHAR
STARTCHAR t
ENCODING 116
SWIDTH 578 0
DWIDTH 7 0
BBX 7 8 0 0
BITMAP
3C887820
DFD6CEC0
FFF7DFE0
FFF7DFF0
FFF7DFF0
FFFCEFE0
DFFFFFC0
3CFFFB20
ENDCHAR
STARTCHAR u
ENCODING 117
SWIDTH 578 0
DWIDTH 7 0
BBX 7 8 0 0
BITMAP
3BBFE720
DD8FE7C0
FD8FE7E0
FD8FE7F0
FE5BA7F0
FFBAAEE0
DFFFFFC0
3CFFFB20
ENDCHAR
STARTCHAR v
ENCODING 118
SWIDTH 578 0
DWIDTH 7 0
BBX 7 8 0 0
BITMAP
3BBFE820
DF5FAAC0
FF5F6EE0
FF9B5FF0
FFD57FF0
FFFBEFE0
DFFFFFC0
3CFFFB20
ENDCHAR
STARTCHAR w
ENCODING 119
SWIDTH 578 0
DWIDTH 7 0
BBX 7 8 0 0
BITMAP
37FCF720
D6E3E5C0
F7D1C5E0
F99596F0
FB4A47F0
FFAFBEE0
DFFFFFC0
3CFFFB20
ENDCHAR
STARTCHAR x
ENCODING 120
SWIDTH 578 0
DWIDTH 7 0
BBX 7 8 0 0
BITMAP
3CBFE820
DF6D7CC0
FFE47FE0
FFD56FF0
FF6E8BF0
FFDFFDE0
DFFFFFC0
3CFFFB20
ENDCHAR
STARTCHAR y
ENCODING 121
SWIDTH 578 0
DWIDTH 7 0
BBX 7 8 0 0
BITMAP
3C9FC820
DF6D6DC0
FFC75FE0
FFF3BFF0
FFF6EFF0
FFFCFFE0
DFFFFFC0
3CFFFB20
ENDCHAR
STARTCHAR z
ENCODING 122
SWIDTH 578 0
DWIDTH 7 0
BBX 7 8 0 0
BITMAP
3CA88B20
DFED4FC0
FFF8CFE0
FFE6FFF0
FF69BEF0
FFCAAEE0
DFFFFFC0
3CFFFB20
ENDCHAR
STARTCHAR braceleft
ENCODING 123
SWIDTH 484 0
DWIDTH 6 0
BBX 6 8 0 0
BITMAP
3C96B2
DF6FFA
FD6FFD
F85FFD
FF6FFD
FF67FD
DFFFFA
3CFEB1
ENDCHAR
STARTCHAR bar
ENCODING 124
SWIDTH 484 0
DWIDTH 6 0
BBX 6 8 0 0
BITMAP
3CACB2
DFADFA
FFADFD
FFADFD
FFADFD
FFBDFD
DFFFFA
3CFEB1
ENDCHAR
STARTCHAR braceright
ENCODING 125
SWIDTH 484 0
DWIDTH 6 0
BBX 6 8 0 0
BITMAP
3B5AB2
DFF6FA
FFF5DD
FFF49D
FFF6FD
FE68FD
DFFFFA
3CFEB1
ENDCHAR
STARTCHAR asciitilde
ENCODING 126
SWIDTH 578 0
DWIDTH 7 0
BBX 7 8 0 0
BITMAP
3CFFFB20
DFEFEEC0
FE565DE0
FFFFFFF0
FFFFFFF0
FFFFFFE0
DFFFFFC0
3CFFFB20
ENDCHAR
STARTCHAR uni00A0
ENCODING 160
SWIDTH 151 0
DWIDTH 2 0
BBX 1 1 0 0
BITMAP
00
ENDCHAR
STARTCHAR exclamdown
ENCODING 161
SWIDTH 424 0
DWIDTH 5 0
BBX 6 8 0 0
BITMAP
3CAC40
DFBFE0
FF8FF2
FF8FF2
FF8FF2
FFCFF2
DFFFE0
3CEC30
ENDCHAR
STARTCHAR cent
ENCODING 162
SWIDTH 578 0
DWIDTH 7 0
BBX 7 8 0 0
BITMAP
3CFAFB20
DF637FC0
FF68FFE0
FF68FFF0
FF549FF0
FFE7EFE0
DFFFFFC0
3CFFFB20
ENDCHAR
STARTCHAR sterling
ENCODING 163
SWIDTH 578 0
DWIDTH 7 0
BBX 7 8 0 0
BITMAP
3CD8AB20
DF8B6FC0
FF6ADFE0
FF69CFF0
FF89BFF0
FFDAAFE0
DFFFFFC0
3CFFFB20
ENDCHAR
STARTCHAR currency
ENCODING 164
SWIDTH 578 0
DWIDTH 7 0
BBX 7 8 0 0
BITMAP
3CCEE920
DF584DC0
FF7F9DE0
FF584DF0
FFBEDCF0
FFFFFFE0
DFFFFFC0
3CFFFB20
ENDCHAR
STARTCHAR yen
ENCODING 165
SWIDTH 578 0
DWIDTH 7 0
BBX 7 8 0 0
BITMAP
3BBFBA20
DF4F5FC0
FF988FE0
FFA09FF0
FFA3AFF0
FFFCFFE0
DFFFFFC0
3CFFFB20
ENDCHAR
STARTCHAR brokenbar
ENCODING 166
SWIDTH 484 0
DWIDTH 6 0
BBX 6 8 0 0
BITMAP
3CCDB2
DF9CFA
FFCDFD
FFACFD
FF9CFD
FFDEFD
DFFFFA
3CFEB1
ENDCHAR
STARTCHAR section
ENCODING 167
SWIDTH 578 0
DWIDTH 7 0
BBX 7 8 0 0
BITMAP
3CB88A20
DF7EEFC0
FF679FE0
FF996FF0
FFFD7EF0
FF886FE0
DFFFFFC0
3CFFFB20
ENDCHAR
STARTCHAR dieresis
ENCODING 168
SWIDTH 388 0
DWIDTH 5 0
BBX 5 4 0 0
BITMAP
056300
BFFF50
E6BA90
7CCB30
ENDCHAR
STARTCHAR copyright
ENCODING 169
SWIDTH 578 0
DWIDTH 7 0
BBX 7 8 0 0
BITMAP
3CB9AB20
D99898C0
F98FFCB0
EB8FFEA0
F8A8B9D0
FD899CE0
DFFFFFC0
3CFFFB20
ENDCHAR
STARTCHAR ordfeminine
ENCODING 170
SWIDTH 578 0
DWIDTH 7 0
BBX 7 8 0 0
BITMAP
3CC89B20
DFED7DC0
FF963DE0
FF5D7DF0
FFB89FF0
FFFFFFE0
DFFFFFC0
3CFFFB20
ENDCHAR
STARTCHAR guillemotleft
ENCODING 171
SWIDTH 578 0
DWIDTH 7 0
BBX 7 8 0 0
BITMAP
3CFFFB20
DFDB9FC0
FF8ADFE0
FDA8FFF0
FF9CAFF0
FFFCCFE0
DFFFFFC0
3CFFFB20
ENDCHAR
STARTCHAR uni00AD
ENCODING 173
SWIDTH 428 0
DWIDTH 5 0
BBX 6 8 0 0
BITMAP
3CFD40
DFFFE0
FA69F2
FFFFF2
FFFFF2
FFFFF2
DFFFE0
3CEC40
ENDCHAR
STARTCHAR registered
ENCODING 174
SWIDTH 578 0
DWIDTH 7 0
BBX 7 8 0 0
BITMAP
3CB9AB20
D98998C0
F98F9CB0
EB888EA0
F89F99D0
FD899CE0
DFFFFFC0
3CFFFB20
ENDCHAR
STARTCHAR macron
ENCODING 175
SWIDTH 428 0
DWIDTH 5 0
BBX 6 4 0 0
BITMAP
057500
AFFFC0
F959F2
8FFFA0
ENDCHAR
STARTCHAR degree
ENCODING 176
SWIDTH 428 0
DWIDTH 5 0
BBX 6 8 0 0
BITMAP
3B9A40
D8C7E0
FD7BF2
FFFFF2
FFFFF2
FFFFF2
DFFFE0
3CEC40
ENDCHAR
STARTCHAR plusminus
ENCODING 177
SWIDTH 428 0
DWIDTH 5 0
BBX 6 8 0 0
BITMAP
3CAD40
DB4AE0
FC4BF2
FE9EF2
FB8AF2
FFFFF2
DFFFE0
3CEC40
ENDCHAR
STARTCHAR uni00B2
ENCODING 178
SWIDTH 578 0
DWIDTH 7 0
BBX 7 8 0 0
BITMAP
3CC8BB20
DFAA4FC0
FF69DFE0
FF96AFF0
FFFFFFF0
FFFFFFE0
DFFFFFC0
3CFFFB20
ENDCHAR
STARTCHAR uni00B3
ENCODING 179
SWIDTH 578 0
DWIDTH 7 0
BBX 7 8 0 0
BITMAP
3CD88B20
DFCA5DC0
FFCC6DE0
FFB66EF0
FFFFFFF0
FFFFFFE0
DFFFFFC0
3CFFFB20
ENDCHAR
STARTCHAR acute
ENCODING 180
SWIDTH 308 0
DWIDTH 4 0
BBX 4 4 0 0
BITMAP
4EE5
A9C9
E8F2
AD70
ENDCHAR
STARTCHAR uni00B5
ENCODING 181
SWIDTH 578 0
DWIDTH 7 0
BBX 7 8 0 0
BITMAP
3ACFD920
DBAFC9C0
FBAFC9E0
FBAFC9F0
FB7B8AF0
FB7AAFE0
DFEFFFC0
3CFFFB20
ENDCHAR
STARTCHAR paragraph
ENCODING 182
SWIDTH 578 0
DWIDTH 7 0
BBX 7 8 0 0
BITMAP
3CA99B20
DD008FC0
FE008FE0
FFEA8FF0
FFFB8FF0
FFFEEFE0
DFFFFFC0
3CFFFB20
ENDCHAR
STARTCHAR periodcentered
ENCODING 183
SWIDTH 428 0
DWIDTH 5 0
BBX 6 8 0 0
BITMAP
3CFD40
DFFFE0
FF6FF2
FFFFF2
FFFFF2
FFFFF2
DFFFE0
3CEC40
ENDCHAR
STARTCHAR cedilla
ENCODING 184
SWIDTH 101 0
DWIDTH 1 0
BBX 2 2 0 -2
BITMAP
92
92
ENDCHAR
STARTCHAR uni00B9
ENCODING 185
SWIDTH 578 0
DWIDTH 7 0
BBX 7 8 0 0
BITMAP
3CD8FB20
DFD5FFC0
FFF6FFE0
FFF9FFF0
FFFFFFF0
FFFFFFE0
DFFFFFC0
3CFFFB20
ENDCHAR
STARTCHAR ordmasculine
ENCODING 186
SWIDTH 578 0
DWIDTH 7 0
BBX 7 8 0 0
BITMAP
3CB88A20
DF5DA8C0
FF6FC8E0
FF5DB8F0
FFB88EF0
FFFFFFE0
DFFFFFC0
3CFFFB20
ENDCHAR
STARTCHAR guillemotright
ENCODING 187
SWIDTH 578 0
DWIDTH 7 0
BBX 7 8 0 0
BITMAP
3CFFFB20
DF9AEFC0
FFCB8FE0
FFF89EF0
FFAC9FF0
FFCCFFE0
DFFFFFC0
3CFFFB20
ENDCHAR
STARTCHAR onequarter
ENCODING 188
SWIDTH 578 0
DWIDTH 7 0
BBX 7 8 0 0
BITMAP
36DAFB20
C7B5FFC0
FA96CBE0
FC7796F0
FF6C4290
FFCFF7E0
DFFFFFC0
3CFFFB20
ENDCHAR
STARTCHAR onehalf
ENCODING 189
SWIDTH 578 0
DWIDTH 7 0
BBX 7 8 0 0
BITMAP
36DAFB20
C7B5FFC0
FA9655D0
FC7A85B0
FF6C5AE0
FFCFAAE0
DFFFFFC0
3CFFFB20
ENDCHAR
STARTCHAR threequarters
ENCODING 190
SWIDTH 578 0
DWIDTH 7 0
BBX 7 8 0 0
BITMAP
36DAFB20
C7B5FFC0
FA9655B0
FC7BC680
FF6C9970
FFCFAAE0
DFFFFFC0
3CFFFB20
ENDCHAR
STARTCHAR questiondown
ENCODING 191
SWIDTH 578 0
DWIDTH 7 0
BBX 7 8 0 0
BITMAP
3CFCDB20
DFFBDFC0
FFA5DFE0
FF7FFFF0
FF6A9CF0
FFECCFE0
DFFFFFC0
3CFFFB20
ENDCHAR
STARTCHAR Agrave
ENCODING 192
SWIDTH 578 0
DWIDTH 7 0
BBX 7 11 0 0
BITMAP
08FE2000
0C9B7000
05F9C000
3CFFFB20
DF5D7DC0
FF5FABE0
FE3759F0
FC8FC8F0
FEDFECE0
DFFFFFC0
3CFFFB20
ENDCHAR
STARTCHAR Aacute
ENCODING 193
SWIDTH 578 0
DWIDTH 7 0
BBX 7 11 0 0
BITMAP
002EE800
008B9C00
00C9F500
3CFFFB20
DF5D7DC0
FF5FABE0
FE3759F0
FC8FC8F0
FEDFECE0
DFFFFFC0
3CFFFB20
ENDCHAR
STARTCHAR Acircumflex
ENCODING 194
SWIDTH 578 0
DWIDTH 7 0
BBX 7 12 0 0
BITMAP
00031000
00AED000
02F5D600
07CDAA00
3FFFFF20
DF5D7DC0
FF5FABE0
FE3759F0
FC8FC8F0
FEDFECE0
DFFFFFC0
3CFFFB20
ENDCHAR
STARTCHAR Atilde
ENCODING 195
SWIDTH 578 0
DWIDTH 7 0
BBX 7 12 0 0
BITMAP
019CB300
0BFFFE10
0DA98F30
08DECC00
3CB89B20
DF5D7DC0
FF5FABE0
FE3759F0
FC8FC8F0
FEDFECE0
DFFFFFC0
3CFFFB20
ENDCHAR
STARTCHAR Adieresis
ENCODING 196
SWIDTH 578 0
DWIDTH 7 0
BBX 7 11 0 0
BITMAP
00364000
06FFFA00
0A9D7E00
3FFFFF20
DF5D7DC0
FF5FABE0
FE3759F0
FC8FC8F0
FEDFECE0
DFFFFFC0
3CFFFB20
ENDCHAR
STARTCHAR Aring
ENCODING 197
SWIDTH 578 0
DWIDTH 7 0
BBX 7 12 0 0
BITMAP
006A7000
05D8B800
09AA8C00
06FDF900
3CB89B20
DF5D7DC0
FF5FABE0
FE3759F0
FC8FC8F0
FEDFECE0
DFFFFFC0
3CFFFB20
ENDCHAR
STARTCHAR AE
ENCODING 198
SWIDTH 578 0
DWIDTH 7 0
BBX 7 8 0 0
BITMAP
3C977720
DD65DEC0
FC969CE0
FAA5CDF0
F863BDF0
FDFCADE0
DFFFFFC0
3CFFFB20
ENDCHAR
STARTCHAR Ccedilla
ENCODING 199
SWIDTH 578 0
DWIDTH 7 0
BBX 7 8 0 0
BITMAP
3C888B20
DD7DDFC0
FC8FFFE0
FC8FFFF0
FD5BBFF0
FFA3AFE0
DFA8FFC0
3CFDFB20
ENDCHAR
STARTCHAR Egrave
ENCODING 200
SWIDTH 578 0
DWIDTH 7 0
BBX 7 11 0 0
BITMAP
06EE4000
0AB99000
03F9E000
3CFFFA20
DF6DDFC0
FF69AFE0
FF6CCFF0
FF6BBEF0
FFCAADE0
DFFFFFC0
3CFFFB20
ENDCHAR
STARTCHAR Eacute
ENCODING 201
SWIDTH 578 0
DWIDTH 7 0
BBX 7 11 0 0
BITMAP
001DF900
006D8E00
00AAE600
3CFFFA20
DF6DDFC0
FF69AFE0
FF6CCFF0
FF6BBEF0
FFCAADE0
DFFFFFC0
3CFFFB20
ENDCHAR
STARTCHAR Ecircumflex
ENCODING 202
SWIDTH 578 0
DWIDTH 7 0
BBX 7 12 0 0
BITMAP
00032000
008EE100
01E7B700
05EB9C00
3FFFFF20
DF6DDFC0
FF69AFE0
FF6CCFF0
FF6BBEF0
FFCAADE0
DFFFFFC0
3CFFFB20
ENDCHAR
STARTCHAR Edieresis
ENCODING 203
SWIDTH 578 0
DWIDTH 7 0
BBX 7 11 0 0
BITMAP
00265000
04FFFC00
08AC7F10
3EFFFF20
DF6DDFC0
FF69AFE0
FF6CCFF0
FF6BBEF0
FFCAADE0
DFFFFFC0
3CFFFB20
ENDCHAR
STARTCHAR Igrave
ENCODING 204
SWIDTH 578 0
DWIDTH 7 0
BBX 7 11 0 0
BITMAP
06EE4000
09C9A000
02F9E000
3CFFF820
DFD6CEC0
FFF7DFE0
FFF7DFF0
FFB5ADF0
FFAAADE0
DFFFFFC0
3CFFFB20
ENDCHAR
STARTCHAR Iacute
ENCODING 205
SWIDTH 578 0
DWIDTH 7 0
BBX 7 11 0 0
BITMAP
001DFA00
005E7E00
009AE700
3CEFF820
DFD6CEC0
FFF7DFE0
FFF7DFF0
FFB5ADF0
FFAAADE0
DFFFFFC0
3CFFFB20
ENDCHAR
STARTCHAR Icircumflex
ENCODING 206
SWIDTH 578 0
DWIDTH 7 0
BBX 7 12 0 0
BITMAP
00032000
007EE200
00E8B800
04EB9D00
3FFFFF20
DFD6CEC0
FFF7DFE0
FFF7DFF0
FFB5ADF0
FFAAADE0
DFFFFFC0
3CFFFB20
ENDCHAR
STARTCHAR Idieresis
ENCODING 207
SWIDTH 578 0
DWIDTH 7 0
BBX 7 11 0 0
BITMAP
00265100
04FFFC00
07BB7F10
3EFFFF20
DFD6CEC0
FFF7DFE0
FFF7DFF0
FFB5ADF0
FFAAADE0
DFFFFFC0
3CFFFB20
ENDCHAR
STARTCHAR Eth
ENCODING 208
SWIDTH 578 0
DWIDTH 7 0
BBX 7 8 0 0
BITMAP
3B787920
DE6DC6C0
FC5FF6E0
FD7FF6F0
FE5BA7F0
FFAAAEE0
DFFFFFC0
3CFFFB20
ENDCHAR
STARTCHAR Ntilde
ENCODING 209
SWIDTH 578 0
DWIDTH 7 0
BBX 7 12 0 0
BITMAP
02ACA200
0CFFFD00
0F999F10
0ADEDB00
3B888A20
DD6DB8C0
FD7FC8E0
FD7FC8F0
FD7FC8F0
FECFEDE0
DFFFFFC0
3CFFFB20
ENDCHAR
STARTCHAR Ograve
ENCODING 210
SWIDTH 578 0
DWIDTH 7 0
BBX 7 11 0 0
BITMAP
07EE3000
0BBA9000
03F9D000
3CFFF920
DE6DC7C0
FE7FE6E0
FE7FE6F0
FE5BA7F0
FFBAAEE0
DFFFFFC0
3CFFFB20
ENDCHAR
STARTCHAR Oacute
ENCODING 211
SWIDTH 578 0
DWIDTH 7 0
BBX 7 11 0 0
BITMAP
001DF900
007C8D00
00BAE600
3CFFF920
DE6DC7C0
FE7FE6E0
FE7FE6F0
FE5BA7F0
FFBAAEE0
DFFFFFC0
3CFFFB20
ENDCHAR
STARTCHAR Ocircumflex
ENCODING 212
SWIDTH 578 0
DWIDTH 7 0
BBX 7 12 0 0
BITMAP
00032000
008EE100
01F7C700
06DC9C00
3FFFFF20
DE6DC7C0
FE7FE6E0
FE7FE6F0
FE5BA7F0
FFBAAEE0
DFFFFFC0
3CFFFB20
ENDCHAR
STARTCHAR Otilde
ENCODING 213
SWIDTH 578 0
DWIDTH 7 0
BBX 7 12 0 0
BITMAP
019CB400
09FFFF20
0CA98F40
07DECD10
3C987920
DE6DC7C0
FE7FE6E0
FE7FE6F0
FE5BA7F0
FFBAAEE0
DFFFFFC0
3CFFFB20
ENDCHAR
STARTCHAR Odieresis
ENCODING 214
SWIDTH 578 0
DWIDTH 7 0
BBX 7 11 0 0
BITMAP
00365000
05FFFC00
08AC7F00
3EFFFF20
DE6DC7C0
FE7FE6E0
FE7FE6F0
FE5BA7F0
FFBAAEE0
DFFFFFC0
3CFFFB20
ENDCHAR
STARTCHAR multiply
ENCODING 215
SWIDTH 578 0
DWIDTH 7 0
BBX 7 8 0 0
BITMAP
3CFFFB20
DFEFEFC0
FFD59FE0
FFC88FF0
FFFFFFF0
FFFFFFE0
DFFFFFC0
3CFFFB20
ENDCHAR
STARTCHAR Oslash
ENCODING 216
SWIDTH 578 0
DWIDTH 7 0
BBX 7 8 0 0
BITMAP
3C988A20
DD7D58C0
FC89A7E0
FC77D7F0
FD1998F0
FFCABEE0
DFFFFFC0
3CFFFB20
ENDCHAR
STARTCHAR Ugrave
ENCODING 217
SWIDTH 578 0
DWIDTH 7 0
BBX 7 11 0 0
BITMAP
06EE4000
0AB99000
03F9E000
3BFFF720
DD8FE7C0
FD8FE7E0
FD8FE7F0
FE5BA7F0
FFBAAEE0
DFFFFFC0
3CFFFB20
ENDCHAR
STARTCHAR Uacute
ENCODING 218
SWIDTH 578 0
DWIDTH 7 0
BBX 7 11 0 0
BITMAP
001DF900
006D8E00
00AAE600
3BFFF820
DD8FE7C0
FD8FE7E0
FD8FE7F0
FE5BA7F0
FFBAAEE0
DFFFFFC0
3CFFFB20
ENDCHAR
STARTCHAR Ucircumflex
ENCODING 219
SWIDTH 578 0
DWIDTH 7 0
BBX 7 12 0 0
BITMAP
00032000
008EE100
01E7B700
05EB9C00
3EFFFF20
DD8FE7C0
FD8FE7E0
FD8FE7F0
FE5BA7F0
FFBAAEE0
DFFFFFC0
3CFFFB20
ENDCHAR
STARTCHAR Udieresis
ENCODING 220
SWIDTH 578 0
DWIDTH 7 0
BBX 7 11 0 0
BITMAP
00265000
04FFFC00
08AC7F10
3DFFFF20
DD8FE7C0
FD8FE7E0
FD8FE7F0
FE5BA7F0
FFBAAEE0
DFFFFFC0
3CFFFB20
ENDCHAR
STARTCHAR Yacute
ENCODING 221
SWIDTH 578 0
DWIDTH 7 0
BBX 7 11 0 0
BITMAP
001DF900
006D8D00
00BAE600
3CFFF820
DF6D6DC0
FFC75FE0
FFF3BFF0
FFF6EFF0
FFFCFFE0
DFFFFFC0
3CFFFB20
ENDCHAR
STARTCHAR Thorn
ENCODING 222
SWIDTH 578 0
DWIDTH 7 0
BBX 7 8 0 0
BITMAP
3C9FFB20
DF466DC0
FF6FC8E0
FF465BF0
FF6FFFF0
FFCFFFE0
DFFFFFC0
3CFFFB20
ENDCHAR
STARTCHAR germandbls
ENCODING 223
SWIDTH 578 0
DWIDTH 7 0
BBX 7 8 0 0
BITMAP
3C988B20
DD6D8BC0
FD8F4DE0
FD8FC7F0
FD8CA7F0
FECBAEE0
DFFFFFC0
3CFFFB20
ENDCHAR
STARTCHAR agrave
ENCODING 224
SWIDTH 578 0
DWIDTH 7 0
BBX 7 11 0 0
BITMAP
07EE3000
0ABA9000
03F9D000
3CFFFB20
DFDD7EC0
FFDC7EE0
FC594EF0
FC7B6EF0
FFBAAFE0
DFFFFFC0
3CFFFB20
ENDCHAR
STARTCHAR aacute
ENCODING 225
SWIDTH 578 0
DWIDTH 7 0
BBX 7 11 0 0
BITMAP
001DF900
006D8E00
00AAE600
3CFFFC20
DFDD7EC0
FFDC7EE0
FC594EF0
FC7B6EF0
FFBAAFE0
DFFFFFC0
3CFFFB20
ENDCHAR
STARTCHAR acircumflex
ENCODING 226
SWIDTH 578 0
DWIDTH 7 0
BBX 7 12 0 0
BITMAP
00032000
008EE100
01E7B700
05EC9C00
3FFFFF20
DFDD7EC0
FFDC7EE0
FC594EF0
FC7B6EF0
FFBAAFE0
DFFFFFC0
3CFFFB20
ENDCHAR
STARTCHAR atilde
ENCODING 227
SWIDTH 578 0
DWIDTH 7 0
BBX 7 12 0 0
BITMAP
018CB400
09FFFF20
0CB88F40
07DECD10
3C988B20
DFDD7EC0
FFDC7EE0
FC594EF0
FC7B6EF0
FFBAAFE0
DFFFFFC0
3CFFFB20
ENDCHAR
STARTCHAR adieresis
ENCODING 228
SWIDTH 578 0
DWIDTH 7 0
BBX 7 11 0 0
BITMAP
00265000
04FFFC00
08AC7F10
3EFFFF20
DFDD7EC0
FFDC7EE0
FC594EF0
FC7B6EF0
FFBAAFE0
DFFFFFC0
3CFFFB20
ENDCHAR
STARTCHAR aring
ENCODING 229
SWIDTH 578 0
DWIDTH 7 0
BBX 7 12 0 0
BITMAP
005A8100
04D8AA00
08B97D00
04FDEA00
3C988B20
DFDD7EC0
FFDC7EE0
FC594EF0
FC7B6EF0
FFBAAFE0
DFFFFFC0
3CFFFB20
ENDCHAR
STARTCHAR ae
ENCODING 230
SWIDTH 578 0
DWIDTH 7 0
BBX 7 8 0 0
BITMAP
3C977720
DD65DEC0
FC969CE0
FAA5CDF0
F863BDF0
FDFCADE0
DFFFFFC0
3CFFFB20
ENDCHAR
STARTCHAR ccedilla
ENCODING 231
SWIDTH 578 0
DWIDTH 7 0
BBX 7 8 0 0
BITMAP
3C988B20
DD7DDFC0
FC8FFFE0
FC8FFFF0
FD5BBFF0
FFA3AFE0
DFA8FFC0
3CFDFB20
ENDCHAR
STARTCHAR egrave
ENCODING 232
SWIDTH 578 0
DWIDTH 7 0
BBX 7 12 0 0
BITMAP
07EE3000
0BBA9000
03F8D000
009D9000
3C889B20
DC8D6DC0
FC364DE0
FC9FFFF0
FD488FF0
FFEDDFE0
DFFFFFC0
3CFFFB20
ENDCHAR
STARTCHAR eacute
ENCODING 233
SWIDTH 578 0
DWIDTH 7 0
BBX 7 12 0 0
BITMAP
003EE700
009BAB00
00D8F400
009D9000
3C889B20
DC8D6DC0
FC364DE0
FC9FFFF0
FD488FF0
FFEDDFE0
DFFFFFC0
3CFFFB20
ENDCHAR
STARTCHAR ecircumflex
ENCODING 234
SWIDTH 578 0
DWIDTH 7 0
BBX 7 12 0 0
BITMAP
00141000
00CEC000
04E5E300
09BDB800
3FFFFF20
DC8D6DC0
FC364DE0
FC9FFFF0
FD488FF0
FFEDDFE0
DFFFFFC0
3CFFFB20
ENDCHAR
STARTCHAR edieresis
ENCODING 235
SWIDTH 578 0
DWIDTH 7 0
BBX 7 11 0 0
BITMAP
00463000
09FFF700
0D7D9B00
3FFFFF20
DC8D6DC0
FC364DE0
FC9FFFF0
FD488FF0
FFEDDFE0
DFFFFFC0
3CFFFB20
ENDCHAR
STARTCHAR igrave
ENCODING 236
SWIDTH 578 0
DWIDTH 7 0
BBX 7 11 0 0
BITMAP
06EE4000
0AB9A000
03F9E000
3CFFF820
DFD6CEC0
FFF7DFE0
FFF7DFF0
FFB5ADF0
FFAAADE0
DFFFFFC0
3CFFFB20
ENDCHAR
STARTCHAR iacute
ENCODING 237
SWIDTH 578 0
DWIDTH 7 0
BBX 7 11 0 0
BITMAP
001DF900
006D8E00
00AAE600
3CEFF820
DFD6CEC0
FFF7DFE0
FFF7DFF0
FFB5ADF0
FFAAADE0
DFFFFFC0
3CFFFB20
ENDCHAR
STARTCHAR icircumflex
ENCODING 238
SWIDTH 578 0
DWIDTH 7 0
BBX 7 12 0 0
BITMAP
00032000
008EE100
01E7B800
05EB9D00
3FFFFF20
DFD6CEC0
FFF7DFE0
FFF7DFF0
FFB5ADF0
FFAAADE0
DFFFFFC0
3CFFFB20
ENDCHAR
STARTCHAR idieresis
ENCODING 239
SWIDTH 578 0
DWIDTH 7 0
BBX 7 11 0 0
BITMAP
00265000
04FFFC00
08BB7F10
3EFFFF20
DFD6CEC0
FFF7DFE0
FFF7DFF0
FFB5ADF0
FFAAADE0
DFFFFFC0
3CFFFB20
ENDCHAR
STARTCHAR eth
ENCODING 240
SWIDTH 578 0
DWIDTH 7 0
BBX 7 8 0 0
BITMAP
3B787920
DE6DC6C0
FC5FF6E0
FD7FF6F0
FE5BA7F0
FFAAAEE0
DFFFFFC0
3CFFFB20
ENDCHAR
STARTCHAR ntilde
ENCODING 241
SWIDTH 578 0
DWIDTH 7 0
BBX 7 12 0 0
BITMAP
02ACA200
0CFFFD00
0F999F10
0ADEDB00
3B888A20
DD6DB8C0
FD7FC8E0
FD7FC8F0
FD7FC8F0
FECFEDE0
DFFFFFC0
3CFFFB20
ENDCHAR
STARTCHAR oacute
ENCODING 243
SWIDTH 578 0
DWIDTH 7 0
BBX 7 11 0 0
BITMAP
003EE700
008BAB00
00D9F400
3CFFF920
DE6DC7C0
FE7FE6E0
FE7FE6F0
FE5BA7F0
FFBAAEE0
DFFFFFC0
3CFFFB20
ENDCHAR
STARTCHAR ocircumflex
ENCODING 244
SWIDTH 578 0
DWIDTH 7 0
BBX 7 12 0 0
BITMAP
00032000
008EE100
01E7B700
05EC9C00
3FFFFF20
DE6DC7C0
FE7FE6E0
FE7FE6F0
FE5BA7F0
FFBAAEE0
DFFFFFC0
3CFFFB20
ENDCHAR
STARTCHAR otilde
ENCODING 245
SWIDTH 578 0
DWIDTH 7 0
BBX 7 12 0 0
BITMAP
019CB300
0AFFFE10
0DA98F30
08DECD00
3C987920
DE6DC7C0
FE7FE6E0
FE7FE6F0
FE5BA7F0
FFBAAEE0
DFFFFFC0
3CFFFB20
ENDCHAR
STARTCHAR odieresis
ENCODING 246
SWIDTH 578 0
DWIDTH 7 0
BBX 7 11 0 0
BITMAP
00265000
04FFFC00
08AC7F10
3EFFFF20
DE6DC7C0
FE7FE6E0
FE7FE6F0
FE5BA7F0
FFBAAEE0
DFFFFFC0
3CFFFB20
ENDCHAR
STARTCHAR divide
ENCODING 247
SWIDTH 428 0
DWIDTH 5 0
BBX 6 8 0 0
BITMAP
3CFD40
DF6FE0
FA59F2
FF7FF2
FFFFF2
FFFFF2
DFFFE0
3CEC40
ENDCHAR
STARTCHAR oslash
ENCODING 248
SWIDTH 578 0
DWIDTH 7 0
BBX 7 8 0 0
BITMAP
3C988A20
DD7D58C0
FC89A7E0
FC77D7F0
FD1998F0
FFCABEE0
DFFFFFC0
3CFFFB20
ENDCHAR
STARTCHAR ugrave
ENCODING 249
SWIDTH 578 0
DWIDTH 7 0
BBX 7 11 0 0
BITMAP
06EE4000
0AB9A000
03F9E000
3BFFF720
DD8FE7C0
FD8FE7E0
FD8FE7F0
FE5BA7F0
FFBAAEE0
DFFFFFC0
3CFFFB20
ENDCHAR
STARTCHAR uacute
ENCODING 250
SWIDTH 578 0
DWIDTH 7 0
BBX 7 11 0 0
BITMAP
001DF900
006D8E00
00AAE600
3BFFF820
DD8FE7C0
FD8FE7E0
FD8FE7F0
FE5BA7F0
FFBAAEE0
DFFFFFC0
3CFFFB20
ENDCHAR
STARTCHAR ucircumflex
ENCODING 251
SWIDTH 578 0
DWIDTH 7 0
BBX 7 12 0 0
BITMAP
00032000
008EE100
01E7B800
05EB9D00
3EFFFF20
DD8FE7C0
FD8FE7E0
FD8FE7F0
FE5BA7F0
FFBAAEE0
DFFFFFC0
3CFFFB20
ENDCHAR
STARTCHAR udieresis
ENCODING 252
SWIDTH 578 0
DWIDTH 7 0
BBX 7 11 0 0
BITMAP
00265000
04FFFC00
08BB7F10
3DFFFF20
DD8FE7C0
FD8FE7E0
FD8FE7F0
FE5BA7F0
FFBAAEE0
DFFFFFC0
3CFFFB20
ENDCHAR
STARTCHAR yacute
ENCODING 253
SWIDTH 578 0
DWIDTH 7 0
BBX 7 11 0 0
BITMAP
001DF900
006D8D00
00BAE600
3CFFF820
DF6D6DC0
FFC75FE0
FFF3BFF0
FFF6EFF0
FFFCFFE0
DFFFFFC0
3CFFFB20
ENDCHAR
STARTCHAR thorn
ENCODING 254
SWIDTH 578 0
DWIDTH 7 0
BBX 7 8 0 0
BITMAP
3C9FFB20
DF466DC0
FF6FC8E0
FF465BF0
FF6FFFF0
FFCFFFE0
DFFFFFC0
3CFFFB20
ENDCHAR
STARTCHAR ydieresis
ENCODING 255
SWIDTH 578 0
DWIDTH 7 0
BBX 7 11 0 0
BITMAP
00365000
04FFFC00
08AC7F10
3EFFFF20
DF6D6DC0
FFC75FE0
FFF3BFF0
FFF6EFF0
FFFCFFE0
DFFFFFC0
3CFFFB20
ENDCHAR
STARTCHAR Amacron
ENCODING 256
SWIDTH 578 0
DWIDTH 7 0
BBX 7 11 0 0
BITMAP
00475100
09FFFD00
0EA69F30
3FFFFF30
DF5D7DC0
FF5FABE0
FE3759F0
FC8FC8F0
FEDFECE0
DFFFFFC0
3CFFFB20
ENDCHAR
STARTCHAR amacron
ENCODING 257
SWIDTH 578 0
DWIDTH 7 0
BBX 7 11 0 0
BITMAP
00476100
07FFFE10
0CB68F40
3FFFFF30
DFDD7EC0
FFDC7EE0
FC594EF0
FC7B6EF0
FFBAAFE0
DFFFFFC0
3CFFFB20
ENDCHAR
STARTCHAR Abreve
ENCODING 258
SWIDTH 578 0
DWIDTH 7 0
BBX 7 12 0 0
BITMAP
00475100
09FFFD00
0EBA9F30
07FCEB00
3CB89B20
DF5D7DC0
FF5FABE0
FE3759F0
FC8FC8F0
FEDFECE0
DFFFFFC0
3CFFFB20
ENDCHAR
STARTCHAR abreve
ENCODING 259
SWIDTH 578 0
DWIDTH 7 0
BBX 7 12 0 0
BITMAP
00476100
07FFFE10
0CC98F40
05FCEC10
3C988B20
DFDD7EC0
FFDC7EE0
FC594EF0
FC7B6EF0
FFBAAFE0
DFFFFFC0
3CFFFB20
ENDCHAR
STARTCHAR Aogonek
ENCODING 260
SWIDTH 578 0
DWIDTH 7 0
BBX 7 8 0 0
BITMAP
3CB89B20
DF5D7DC0
FF5FABE0
FE3759F0
FC8FC8F0
FEDFBAE0
DFFF6CC0
3CFFEA20
ENDCHAR
STARTCHAR aogonek
ENCODING 261
SWIDTH 578 0
DWIDTH 7 0
BBX 7 8 0 0
BITMAP
3C989B20
DFDD7DC0
FFDC7DE0
FC594DF0
FC7B6DF0
FFA4AEE0
DFE6EFC0
3CFDEB20
ENDCHAR
STARTCHAR Cacute
ENCODING 262
SWIDTH 578 0
DWIDTH 7 0
BBX 7 11 0 0
BITMAP
001DFA00
005E7E00
009AE700
3CEFFC20
DD7DDFC0
FC8FFFE0
FC8FFFF0
FD5BBFF0
FFBAAFE0
DFFFFFC0
3CFFFB20
ENDCHAR
STARTCHAR cacute
ENCODING 263
SWIDTH 578 0
DWIDTH 7 0
BBX 7 11 0 0
BITMAP
001DF900
006D8E00
00AAE600
3CFFFC20
DD7DDFC0
FC8FFFE0
FC8FFFF0
FD5BBFF0
FFBAAFE0
DFFFFFC0
3CFFFB20
ENDCHAR
STARTCHAR Ccircumflex
ENCODING 264
SWIDTH 578 0
DWIDTH 7 0
BBX 7 12 0 0
BITMAP
00031000
009ED100
02F6D600
07DCAB00
3FFFFF20
DD7DDFC0
FC8FFFE0
FC8FFFF0
FD5BBFF0
FFBAAFE0
DFFFFFC0
3CFFFB20
ENDCHAR
STARTCHAR ccircumflex
ENCODING 265
SWIDTH 578 0
DWIDTH 7 0
BBX 7 12 0 0
BITMAP
00031000
00AED000
02F5D600
07CDAA00
3FFFFF20
DD7DDFC0
FC8FFFE0
FC8FFFF0
FD5BBFF0
FFBAAFE0
DFFFFFC0
3CFFFB20
ENDCHAR
STARTCHAR Cdotaccent
ENCODING 266
SWIDTH 578 0
DWIDTH 7 0
BBX 7 11 0 0
BITMAP
01574000
0DFFF900
3FF7FE00
3FFFFF20
DD7DDFC0
FC8FFFE0
FC8FFFF0
FD5BBFF0
FFBAAFE0
DFFFFFC0
3CFFFB20
ENDCHAR
STARTCHAR cdotaccent
ENCODING 267
SWIDTH 578 0
DWIDTH 7 0
BBX 7 11 0 0
BITMAP
00575000
0BFFFB00
1FF6FF00
3FFFFF20
DD7DDFC0
FC8FFFE0
FC8FFFF0
FD5BBFF0
FFBAAFE0
DFFFFFC0
3CFFFB20
ENDCHAR
STARTCHAR Ccaron
ENCODING 268
SWIDTH 578 0
DWIDTH 7 0
BBX 7 11 0 0
BITMAP
06DBD400
0BACB800
07E6F500
3EFFFC20
DD7DDFC0
FC8FFFE0
FC8FFFF0
FD5BBFF0
FFBAAFE0
DFFFFFC0
3CFFFB20
ENDCHAR
STARTCHAR ccaron
ENCODING 269
SWIDTH 578 0
DWIDTH 7 0
BBX 7 11 0 0
BITMAP
05DBD500
09ADA900
06F5F600
3DFFFD20
DD7DDFC0
FC8FFFE0
FC8FFFF0
FD5BBFF0
FFBAAFE0
DFFFFFC0
3CFFFB20
ENDCHAR
STARTCHAR Dcaron
ENCODING 270
SWIDTH 578 0
DWIDTH 7 0
BBX 7 12 0 0
BITMAP
06DBD500
0AACB900
06E5F600
02CBC100
3B787920
DE6DC6C0
FE7FF6E0
FE7FF6F0
FE5BA7F0
FFAAAEE0
DFFFFFC0
3CFFFB20
ENDCHAR
STARTCHAR dcaron
ENCODING 271
SWIDTH 578 0
DWIDTH 7 0
BBX 7 8 0 0
BITMAP
3878B520
D7DD57C0
F7EF6FE0
F7EF6FF0
F7AB5FF0
FCAADFE0
DFFFFFC0
3CFFFB20
ENDCHAR
STARTCHAR Dcroat
ENCODING 272
SWIDTH 578 0
DWIDTH 7 0
BBX 7 8 0 0
BITMAP
3B787920
DE6DC6C0
F73BF6E0
FD7FF6F0
FE5BA7F0
FFAAAEE0
DFFFFFC0
3CFFFB20
ENDCHAR
STARTCHAR dcroat
ENCODING 273
SWIDTH 578 0
DWIDTH 7 0
BBX 7 8 0 0
BITMAP
3B787920
DE6DC6C0
F73BF6E0
FD7FF6F0
FE5BA7F0
FFAAAEE0
DFFFFFC0
3CFFFB20
ENDCHAR
STARTCHAR Emacron
ENCODING 274
SWIDTH 578 0
DWIDTH 7 0
BBX 7 11 0 0
BITMAP
00476100
07FFFE10
0CB68F50
3FFFFF30
DF6DDFC0
FF69AFE0
FF6CCFF0
FF6BBEF0
FFCAADE0
DFFFFFC0
3CFFFB20
ENDCHAR
STARTCHAR emacron
ENCODING 275
SWIDTH 578 0
DWIDTH 7 0
BBX 7 11 0 0
BITMAP
00575000
0CFFFB00
1F86AF00
3FFFFF20
DC8D6DC0
FC364DE0
FC9FFFF0
FD488FF0
FFEDDFE0
DFFFFFC0
3CFFFB20
ENDCHAR
STARTCHAR Ebreve
ENCODING 276
SWIDTH 578 0
DWIDTH 7 0
BBX 7 12 0 0
BITMAP
00476100
07FFFE10
0CC98F50
05FCEC10
3CA87A20
DF6DDFC0
FF69AFE0
FF6CCFF0
FF6BBEF0
FFCAADE0
DFFFFFC0
3CFFFB20
ENDCHAR
STARTCHAR ebreve
ENCODING 277
SWIDTH 578 0
DWIDTH 7 0
BBX 7 12 0 0
BITMAP
00575000
0CFFFB00
1F9A9F00
09FCF800
3C889B20
DC8D6DC0
FC364DE0
FC9FFFF0
FD488FF0
FFEDDFE0
DFFFFFC0
3CFFFB20
ENDCHAR
STARTCHAR Edotaccent
ENCODING 278
SWIDTH 578 0
DWIDTH 7 0
BBX 7 12 0 0
BITMAP
00476100
07FFFE10
0CF8DF50
07EEED10
3CA87A20
DF6DDFC0
FF69AFE0
FF6CCFF0
FF6BBEF0
FFCAADE0
DFFFFFC0
3CFFFB20
ENDCHAR
STARTCHAR edotaccent
ENCODING 279
SWIDTH 578 0
DWIDTH 7 0
BBX 7 12 0 0
BITMAP
00575000
0CFFFB00
1FF6FF00
0BEEEA00
3C889B20
DC8D6DC0
FC364DE0
FC9FFFF0
FD488FF0
FFEDDFE0
DFFFFFC0
3CFFFB20
ENDCHAR
STARTCHAR Eogonek
ENCODING 280
SWIDTH 578 0
DWIDTH 7 0
BBX 7 8 0 0
BITMAP
3CA87A20
DF6DDFC0
FF69AFE0
FF6CCFF0
FF6BBEF0
FFCA5DE0
DFFF5EC0
3CFFDA20
ENDCHAR
STARTCHAR eogonek
ENCODING 281
SWIDTH 578 0
DWIDTH 7 0
BBX 7 8 0 0
BITMAP
3C889B20
DC8D6DC0
FC364DE0
FC9FFFF0
FD488FF0
FFE6CFE0
DFF6CFC0
3CFFEB20
ENDCHAR
STARTCHAR Ecaron
ENCODING 282
SWIDTH 578 0
DWIDTH 7 0
BBX 7 11 0 0
BITMAP
02CCD900
05EA9E00
02F8BB00
3CFFFF20
DF6DDFC0
FF69AFE0
FF6CCFF0
FF6BBEF0
FFCAADE0
DFFFFFC0
3CFFFB20
ENDCHAR
STARTCHAR ecaron
ENCODING 283
SWIDTH 578 0
DWIDTH 7 0
BBX 7 11 0 0
BITMAP
06DBD500
0AACB900
06E5F600
3DFFFD20
DC8D6DC0
FC364DE0
FC9FFFF0
FD488FF0
FFEDDFE0
DFFFFFC0
3CFFFB20
ENDCHAR
STARTCHAR Gcircumflex
ENCODING 284
SWIDTH 578 0
DWIDTH 7 0
BBX 7 12 0 0
BITMAP
00041000
00AED000
02F5D500
07CDAA00
3FFFFF20
DF5DDEC0
FF6FDEE0
FF6E76F0
FF4BA7F0
FFCAAEE0
DFFFFFC0
3CFFFB20
ENDCHAR
STARTCHAR gcircumflex
ENCODING 285
SWIDTH 578 0
DWIDTH 7 0
BBX 7 12 0 0
BITMAP
00041000
00AED000
02F5D500
07CDAA00
3FFFFF20
DF5DDEC0
FF6FDEE0
FF6E76F0
FF4BA7F0
FFCAAEE0
DFFFFFC0
3CFFFB20
ENDCHAR
STARTCHAR Gbreve
ENCODING 286
SWIDTH 578 0
DWIDTH 7 0
BBX 7 12 0 0
BITMAP
00575000
0AFFFC00
0FAA9F20
08FCEA00
3CA87A20
DF5DDEC0
FF6FDEE0
FF6E76F0
FF4BA7F0
FFCAAEE0
DFFFFFC0
3CFFFB20
ENDCHAR
STARTCHAR gbreve
ENCODING 287
SWIDTH 578 0
DWIDTH 7 0
BBX 7 12 0 0
BITMAP
00575000
0CFFFB00
1F9A9F00
09FCF800
3CA87A20
DF5DDEC0
FF6FDEE0
FF6E76F0
FF4BA7F0
FFCAAEE0
DFFFFFC0
3CFFFB20
ENDCHAR
STARTCHAR Gdotaccent
ENCODING 288
SWIDTH 578 0
DWIDTH 7 0
BBX 7 12 0 0
BITMAP
00575000
0CFFFB00
1FF6FF00
0BEEEA00
3CA87A20
DF5DDEC0
FF6FDEE0
FF6E76F0
FF4BA7F0
FFCAAEE0
DFFFFFC0
3CFFFB20
ENDCHAR
STARTCHAR gdotaccent
ENCODING 289
SWIDTH 578 0
DWIDTH 7 0
BBX 7 12 0 0
BITMAP
00575000
0CFFFB00
1FF6FF00
0BEEEA00
3CA87A20
DF5DDEC0
FF6FDEE0
FF6E76F0
FF4BA7F0
FFCAAEE0
DFFFFFC0
3CFFFB20
ENDCHAR
STARTCHAR Gcommaaccent
ENCODING 290
SWIDTH 578 0
DWIDTH 7 0
BBX 7 8 0 0
BITMAP
3CA87A20
DF5DDEC0
FF6FDEE0
FF6E76F0
FF4BA7F0
FFC89EE0
DFF8CFC0
3CFEFB20
ENDCHAR
STARTCHAR gcommaaccent
ENCODING 291
SWIDTH 578 0
DWIDTH 7 0
BBX 7 8 0 0
BITMAP
3CA87A20
DF5DDEC0
FF6FDEE0
FF6E76F0
FF4BA7F0
FFC89EE0
DFF8CFC0
3CFEFB20
ENDCHAR
STARTCHAR Hcircumflex
ENCODING 292
SWIDTH 578 0
DWIDTH 7 0
BBX 7 12 0 0
BITMAP
00031000
00AED000
02F5D600
07CDAA00
3FFFFE20
DE7FF6C0
FE4886E0
FE6CC6F0
FE7FF6F0
FFCFFCE0
DFFFFFC0
3CFFFB20
ENDCHAR
STARTCHAR hcircumflex
ENCODING 293
SWIDTH 578 0
DWIDTH 7 0
BBX 7 12 0 0
BITMAP
00031000
009EE100
01F6C600
06DCAB00
3FFFFF20
DE7FF6C0
FE4886E0
FE6CC6F0
FE7FF6F0
FFCFFCE0
DFFFFFC0
3CFFFB20
ENDCHAR
STARTCHAR Hbar
ENCODING 294
SWIDTH 578 0
DWIDTH 7 0
BBX 7 12 0 0
BITMAP
00575000
0AFFFC00
0F959F20
08FFFA00
3BBFF720
DE7FF6C0
FE4886E0
FE6CC6F0
FE7FF6F0
FFCFFCE0
DFFFFFC0
3CFFFB20
ENDCHAR
STARTCHAR hbar
ENCODING 295
SWIDTH 578 0
DWIDTH 7 0
BBX 7 8 0 0
BITMAP
3BBFF720
DC3774C0
FE4886E0
FE6CC6F0
FE7FF6F0
FFCFFCE0
DFFFFFC0
3CFFFB20
ENDCHAR
STARTCHAR Itilde
ENCODING 296
SWIDTH 578 0
DWIDTH 7 0
BBX 7 12 0 0
BITMAP
008CB500
08FFFF30
0BB88F50
06DFCE10
3C887820
DFD6CEC0
FFF7DFE0
FFF7DFF0
FFB5ADF0
FFAAADE0
DFFFFFC0
3CFFFB20
ENDCHAR
STARTCHAR itilde
ENCODING 297
SWIDTH 578 0
DWIDTH 7 0
BBX 7 12 0 0
BITMAP
018CB400
08FFFF20
0BB88F50
06DFCE10
3C887820
DFD6CEC0
FFF7DFE0
FFF7DFF0
FFB5ADF0
FFAAADE0
DFFFFFC0
3CFFFB20
ENDCHAR
STARTCHAR Imacron
ENCODING 298
SWIDTH 578 0
DWIDTH 7 0
BBX 7 12 0 0
BITMAP
00476100
08FFFE10
0CB58F40
05FFFC10
3C887820
DFD6CEC0
FFF7DFE0
FFF7DFF0
FFB5ADF0
FFAAADE0
DFFFFFC0
3CFFFB20
ENDCHAR
STARTCHAR imacron
ENCODING 299
SWIDTH 578 0
DWIDTH 7 0
BBX 7 12 0 0
BITMAP
00476100
08FFFD10
0CB58F40
06FFFC00
3C887820
DFD6CEC0
FFF7DFE0
FFF7DFF0
FFB5ADF0
FFAAADE0
DFFFFFC0
3CFFFB20
ENDCHAR
STARTCHAR Ibreve
ENCODING 300
SWIDTH 578 0
DWIDTH 7 0
BBX 7 12 0 0
BITMAP
00376100
06FFFE20
0BD88F50
04FCDC10
3C887820
DFD6CEC0
FFF7DFE0
FFF7DFF0
FFB5ADF0
FFAAADE0
DFFFFFC0
3CFFFB20
ENDCHAR
STARTCHAR ibreve
ENCODING 301
SWIDTH 578 0
DWIDTH 7 0
BBX 7 12 0 0
BITMAP
00376100
07FFFE20
0BD98F50
05FCEC10
3C887820
DFD6CEC0
FFF7DFE0
FFF7DFF0
FFB5ADF0
FFAAADE0
DFFFFFC0
3CFFFB20
ENDCHAR
STARTCHAR Iogonek
ENCODING 302
SWIDTH 578 0
DWIDTH 7 0
BBX 7 8 0 0
BITMAP
3C887820
DFD6CEC0
FFF7DFE0
FFF7DFF0
FFB5ADF0
FFAA6BE0
DFFF6DC0
3CFFDA20
ENDCHAR
STARTCHAR iogonek
ENCODING 303
SWIDTH 578 0
DWIDTH 7 0
BBX 7 8 0 0
BITMAP
3C887820
DFD6CEC0
FFF7DFE0
FFF7DFF0
FFB5ADF0
FFAA6BE0
DFFF6DC0
3CFFDA20
ENDCHAR
STARTCHAR Idotaccent
ENCODING 304
SWIDTH 578 0
DWIDTH 7 0
BBX 7 12 0 0
BITMAP
00475100
0AFFFC00
0EF6FF20
0AEEEC00
3C887820
DFD6CEC0
FFF7DFE0
FFF7DFF0
FFB5ADF0
FFAAADE0
DFFFFFC0
3CFFFB20
ENDCHAR
STARTCHAR dotlessi
ENCODING 305
SWIDTH 578 0
DWIDTH 7 0
BBX 7 8 0 0
BITMAP
3C887820
DFD6CEC0
FFF7DFE0
FFF7DFF0
FFB5ADF0
FFAAADE0
DFFFFFC0
3CFFFB20
ENDCHAR
STARTCHAR IJ
ENCODING 306
SWIDTH 578 0
DWIDTH 7 0
BBX 7 8 0 0
BITMAP
357BF720
DD6EF6C0
FE6FF6E0
FE6FF6F0
FB5CB5F0
FAACADE0
DFFFFFC0
3CFFFB20
ENDCHAR
STARTCHAR ij
ENCODING 307
SWIDTH 578 0
DWIDTH 7 0
BBX 7 8 0 0
BITMAP
357BF720
DD6EF6C0
FE6FF6E0
FE6FF6F0
FB5CB5F0
FAACADE0
DFFFFFC0
3CFFFB20
ENDCHAR
STARTCHAR Jcircumflex
ENCODING 308
SWIDTH 578 0
DWIDTH 7 0
BBX 7 12 0 0
BITMAP
00032000
008EE100
01F7C700
06DC9C00
3FFFFF20
DFFF6FC0
FFFF6FE0
FFFF6FF0
FFEA6FF0
FFDAEFE0
DFFFFFC0
3CFFFB20
ENDCHAR
STARTCHAR jcircumflex
ENCODING 309
SWIDTH 578 0
DWIDTH 7 0
BBX 7 12 0 0
BITMAP
00032000
008EE100
01F7C700
06DC9C00
3FFFFF20
DFFF6FC0
FFFF6FE0
FFFF6FF0
FFEA6FF0
FFDAEFE0
DFFFFFC0
3CFFFB20
ENDCHAR
STARTCHAR Kcommaaccent
ENCODING 310
SWIDTH 578 0
DWIDTH 7 0
BBX 7 8 0 0
BITMAP
3CAFE620
DF6E5CC0
FF64CFE0
FF679FF0
FF6F7AF0
FFCDECE0
DFF8CFC0
3CFEFB20
ENDCHAR
STARTCHAR kcommaaccent
ENCODING 311
SWIDTH 578 0
DWIDTH 7 0
BBX 7 8 0 0
BITMAP
3CAFE620
DF6E5CC0
FF64CFE0
FF679FF0
FF6F7AF0
FFCDECE0
DFF8CFC0
3CFEFB20
ENDCHAR
STARTCHAR kgreenlandic
ENCODING 312
SWIDTH 578 0
DWIDTH 7 0
BBX 7 8 0 0
BITMAP
3CAFE620
DF6E5CC0
FF64CFE0
FF679FF0
FF6F7AF0
FFCFFCE0
DFFFFFC0
3CFFFB20
ENDCHAR
STARTCHAR Lacute
ENCODING 313
SWIDTH 578 0
DWIDTH 7 0
BBX 7 12 0 0
BITMAP
009FC200
01F6F400
05EAB000
02DD3000
3CCDFB20
DF9BFFC0
FF9BFFE0
FF9BFFF0
FF98BFF0
FFDAAFE0
DFFFFFC0
3CFFFB20
ENDCHAR
STARTCHAR lacute
ENCODING 314
SWIDTH 578 0
DWIDTH 7 0
BBX 7 12 0 0
BITMAP
009FC200
01F6F400
05EAB000
02DD3000
3CCDFB20
DF9BFFC0
FF9BFFE0
FF9BFFF0
FF98BFF0
FFDAAFE0
DFFFFFC0
3CFFFB20
ENDCHAR
STARTCHAR Lcommaaccent
ENCODING 315
SWIDTH 578 0
DWIDTH 7 0
BBX 7 8 0 0
BITMAP
3CCDFB20
DF9BFFC0
FF9BFFE0
FF9BFFF0
FF98BFF0
FFD89FE0
DFF8CFC0
3CFEFB20
ENDCHAR
STARTCHAR lcommaaccent
ENCODING 316
SWIDTH 578 0
DWIDTH 7 0
BBX 7 8 0 0
BITMAP
3CCDFB20
DF9BFFC0
FF9BFFE0
FF9BFFF0
FF98BFF0
FFD89FE0
DFF8CFC0
3CFEFB20
ENDCHAR
STARTCHAR Lcaron
ENCODING 317
SWIDTH 578 0
DWIDTH 7 0
BBX 7 8 0 0
BITMAP
3CCD8B20
DF9B7FC0
FF9BFFE0
FF9BFFF0
FF98BFF0
FFDAAFE0
DFFFFFC0
3CFFFB20
ENDCHAR
STARTCHAR lcaron
ENCODING 318
SWIDTH 578 0
DWIDTH 7 0
BBX 7 8 0 0
BITMAP
3CCD8B20
DF9B7FC0
FF9BFFE0
FF9BFFF0
FF98BFF0
FFDAAFE0
DFFFFFC0
3CFFFB20
ENDCHAR
STARTCHAR Ldot
ENCODING 319
SWIDTH 578 0
DWIDTH 7 0
BBX 7 8 0 0
BITMAP
3CCDFB20
DF9BFFC0
FF999FE0
FF9BFFF0
FF98BFF0
FFDAAFE0
DFFFFFC0
3CFFFB20
ENDCHAR
STARTCHAR ldot
ENCODING 320
SWIDTH 578 0
DWIDTH 7 0
BBX 7 8 0 0
BITMAP
3CCDFB20
DF9BFFC0
FF999FE0
FF9BFFF0
FF98BFF0
FFDAAFE0
DFFFFFC0
3CFFFB20
ENDCHAR
STARTCHAR Lslash
ENCODING 321
SWIDTH 578 0
DWIDTH 7 0
BBX 7 8 0 0
BITMAP
3CCDFB20
DF9BFFC0
FF87FFE0
FF7BFFF0
FF98BFF0
FFDAAFE0
DFFFFFC0
3CFFFB20
ENDCHAR
STARTCHAR lslash
ENCODING 322
SWIDTH 578 0
DWIDTH 7 0
BBX 7 8 0 0
BITMAP
3CCDFB20
DF9BFFC0
FF87FFE0
FF7BFFF0
FF98BFF0
FFDAAFE0
DFFFFFC0
3CFFFB20
ENDCHAR
STARTCHAR Nacute
ENCODING 323
SWIDTH 578 0
DWIDTH 7 0
BBX 7 12 0 0
BITMAP
003EE700
009BAB00
00D8F400
009D9000
3B888A20
DD6DB8C0
FD7FC8E0
FD7FC8F0
FD7FC8F0
FECFEDE0
DFFFFFC0
3CFFFB20
ENDCHAR
STARTCHAR nacute
ENCODING 324
SWIDTH 578 0
DWIDTH 7 0
BBX 7 12 0 0
BITMAP
003EE700
009BAB00
00D8F400
009D9000
3B888A20
DD6DB8C0
FD7FC8E0
FD7FC8F0
FD7FC8F0
FECFEDE0
DFFFFFC0
3CFFFB20
ENDCHAR
STARTCHAR Ncommaaccent
ENCODING 325
SWIDTH 578 0
DWIDTH 7 0
BBX 7 8 0 0
BITMAP
3B888A20
DD6DB8C0
FD7FC8E0
FD7FC8F0
FD7FC8F0
FECDDDE0
DFF8CFC0
3CFEFB20
ENDCHAR
STARTCHAR ncommaaccent
ENCODING 326
SWIDTH 578 0
DWIDTH 7 0
BBX 7 8 0 0
BITMAP
3B888A20
DD6DB8C0
FD7FC8E0
FD7FC8F0
FD7FC8F0
FECDDDE0
DFF8CFC0
3CFEFB20
ENDCHAR
STARTCHAR Ncaron
ENCODING 327
SWIDTH 578 0
DWIDTH 7 0
BBX 7 11 0 0
BITMAP
06DBD500
0AACB900
06E5F600
3DFFFB20
DD6DB8C0
FD7FC8E0
FD7FC8F0
FD7FC8F0
FECFEDE0
DFFFFFC0
3CFFFB20
ENDCHAR
STARTCHAR ncaron
ENCODING 328
SWIDTH 578 0
DWIDTH 7 0
BBX 7 11 0 0
BITMAP
06DBD500
0AACB900
06E5F600
3DFFFB20
DD6DB8C0
FD7FC8E0
FD7FC8F0
FD7FC8F0
FECFEDE0
DFFFFFC0
3CFFFB20
ENDCHAR
STARTCHAR napostrophe
ENCODING 329
SWIDTH 578 0
DWIDTH 7 0
BBX 7 8 0 0
BITMAP
3B888A20
866DB8C0
EB7FC8E0
FD7FC8F0
FD7FC8F0
FECFEDE0
DFFFFFC0
3CFFFB20
ENDCHAR
STARTCHAR Eng
ENCODING 330
SWIDTH 578 0
DWIDTH 7 0
BBX 7 8 0 0
BITMAP
3B888A20
DD6DB8C0
FD7FC8E0
FD7FC8F0
FD7FC8F0
FECFC8E0
DFFB59C0
3CFFEB20
ENDCHAR
STARTCHAR eng
ENCODING 331
SWIDTH 578 0
DWIDTH 7 0
BBX 7 8 0 0
BITMAP
3B888A20
DD6DB8C0
FD7FC8E0
FD7FC8F0
FD7FC8F0
FECFC8E0
DFFB59C0
3CFFEB20
ENDCHAR
STARTCHAR Omacron
ENCODING 332
SWIDTH 578 0
DWIDTH 7 0
BBX 7 12 0 0
BITMAP
00476100
08FFFE10
0CB58F40
05FFFC10
3C987920
DE6DC7C0
FE7FE6E0
FE7FE6F0
FE5BA7F0
FFBAAEE0
DFFFFFC0
3CFFFB20
ENDCHAR
STARTCHAR omacron
ENCODING 333
SWIDTH 578 0
DWIDTH 7 0
BBX 7 12 0 0
BITMAP
00476100
08FFFE10
0CB58F40
05FFFC10
3C987920
DE6DC7C0
FE7FE6E0
FE7FE6F0
FE5BA7F0
FFBAAEE0
DFFFFFC0
3CFFFB20
ENDCHAR
STARTCHAR Obreve
ENCODING 334
SWIDTH 578 0
DWIDTH 7 0
BBX 7 12 0 0
BITMAP
00476100
08FFFE10
0CC98F40
05FCEC10
3C987920
DE6DC7C0
FE7FE6E0
FE7FE6F0
FE5BA7F0
FFBAAEE0
DFFFFFC0
3CFFFB20
ENDCHAR
STARTCHAR obreve
ENCODING 335
SWIDTH 578 0
DWIDTH 7 0
BBX 7 12 0 0
BITMAP
00476100
08FFFE10
0CC98F40
05FCEC10
3C987920
DE6DC7C0
FE7FE6E0
FE7FE6F0
FE5BA7F0
FFBAAEE0
DFFFFFC0
3CFFFB20
ENDCHAR
STARTCHAR Ohungarumlaut
ENCODING 336
SWIDTH 578 0
DWIDTH 7 0
BBX 7 12 0 0
BITMAP
00002200
001DFF60
007CB8C0
01EABE50
3DFFFF20
DE6DC7C0
FE7FE6E0
FE7FE6F0
FE5BA7F0
FFBAAEE0
DFFFFFC0
3CFFFB20
ENDCHAR
STARTCHAR ohungarumlaut
ENCODING 337
SWIDTH 578 0
DWIDTH 7 0
BBX 7 12 0 0
BITMAP
00002200
001DFF60
007CB8C0
01EABE50
3DFFFF20
DE6DC7C0
FE7FE6E0
FE7FE6F0
FE5BA7F0
FFBAAEE0
DFFFFFC0
3CFFFB20
ENDCHAR
STARTCHAR OE
ENCODING 338
SWIDTH 578 0
DWIDTH 7 0
BBX 7 8 0 0
BITMAP
39787620
D6D6CEC0
F6F79CE0
F6F7ADF0
F6B5ACF0
FDABABE0
DFFFFFC0
3CFFFB20
ENDCHAR
STARTCHAR oe
ENCODING 339
SWIDTH 578 0
DWIDTH 7 0
BBX 7 8 0 0
BITMAP
39787620
D6D6CEC0
F6F79CE0
F6F7ADF0
F6B5ACF0
FDABABE0
DFFFFFC0
3CFFFB20
ENDCHAR
STARTCHAR Racute
ENCODING 340
SWIDTH 578 0
DWIDTH 7 0
BBX 7 11 0 0
BITMAP
003EE700
009BAB00
00D9F400
3CFFFB20
DF5D7CC0
FF4C7DE0
FF496DF0
FF6FABF0
FFCFDDE0
DFFFFFC0
3CFFFB20
ENDCHAR
STARTCHAR racute
ENCODING 341
SWIDTH 578 0
DWIDTH 7 0
BBX 7 11 0 0
BITMAP
003EE700
009BAB00
00D9F400
3CFFFB20
DF5D7CC0
FF4C7DE0
FF496DF0
FF6FABF0
FFCFDDE0
DFFFFFC0
3CFFFB20
ENDCHAR
STARTCHAR Rcommaaccent
ENCODING 342
SWIDTH 578 0
DWIDTH 7 0
BBX 7 8 0 0
BITMAP
3C788B20
DF5D7CC0
FF4C7DE0
FF496DF0
FF6FABF0
FFCDDDE0
DFF8CFC0
3CFEFB20
ENDCHAR
STARTCHAR rcommaaccent
ENCODING 343
SWIDTH 578 0
DWIDTH 7 0
BBX 7 8 0 0
BITMAP
3C788B20
DF5D7CC0
FF4C7DE0
FF496DF0
FF6FABF0
FFCDDDE0
DFF8CFC0
3CFEFB20
ENDCHAR
STARTCHAR Rcaron
ENCODING 344
SWIDTH 578 0
DWIDTH 7 0
BBX 7 11 0 0
BITMAP
06DBD500
0AACB900
06E5F600
3DFFFC20
DF5D7CC0
FF4C7DE0
FF496DF0
FF6FABF0
FFCFDDE0
DFFFFFC0
3CFFFB20
ENDCHAR
STARTCHAR rcaron
ENCODING 345
SWIDTH 578 0
DWIDTH 7 0
BBX 7 11 0 0
BITMAP
06DBD500
0AACB900
06E5F600
3DFFFC20
DF5D7CC0
FF4C7DE0
FF496DF0
FF6FABF0
FFCFDDE0
DFFFFFC0
3CFFFB20
ENDCHAR
STARTCHAR Sacute
ENCODING 346
SWIDTH 578 0
DWIDTH 7 0
BBX 7 11 0 0
BITMAP
001DFA00
005E7E00
009AE700
3CFFFA20
DF5DDEC0
FF499EE0
FFECA8F0
FFCB98F0
FFBAAEE0
DFFFFFC0
3CFFFB20
ENDCHAR
STARTCHAR sacute
ENCODING 347
SWIDTH 578 0
DWIDTH 7 0
BBX 7 11 0 0
BITMAP
001DFA00
005E7E00
009AE700
3CFFFA20
DF5DDEC0
FF499EE0
FFECA8F0
FFCB98F0
FFBAAEE0
DFFFFFC0
3CFFFB20
ENDCHAR
STARTCHAR Scircumflex
ENCODING 348
SWIDTH 578 0
DWIDTH 7 0
BBX 7 12 0 0
BITMAP
00032000
007EE200
00E8A800
04EB9D00
3EFFFF20
DF5DDEC0
FF499EE0
FFECA8F0
FFCB98F0
FFBAAEE0
DFFFFFC0
3CFFFB20
ENDCHAR
STARTCHAR scircumflex
ENCODING 349
SWIDTH 578 0
DWIDTH 7 0
BBX 7 12 0 0
BITMAP
00032000
007EE200
00E8A800
04EB9D00
3EFFFF20
DF5DDEC0
FF499EE0
FFECA8F0
FFCB98F0
FFBAAEE0
DFFFFFC0
3CFFFB20
ENDCHAR
STARTCHAR Scedilla
ENCODING 350
SWIDTH 578 0
DWIDTH 7 0
BBX 7 8 0 0
BITMAP
3CA87A20
DF5DDEC0
FF499EE0
FFECA8F0
FFCB98F0
FFB29EE0
DFD6FFC0
3CFDEB20
ENDCHAR
STARTCHAR scedilla
ENCODING 351
SWIDTH 578 0
DWIDTH 7 0
BBX 7 8 0 0
BITMAP
3CA87A20
DF5DDEC0
FF499EE0
FFECA8F0
FFCB98F0
FFB29EE0
DFD6FFC0
3CFDEB20
ENDCHAR
STARTCHAR Scaron
ENCODING 352
SWIDTH 578 0
DWIDTH 7 0
BBX 7 11 0 0
BITMAP
01CCDA00
04EA9F00
01F9AB00
3CFFFF20
DF5DDEC0
FF499EE0
FFECA8F0
FFCB98F0
FFBAAEE0
DFFFFFC0
3CFFFB20
ENDCHAR
STARTCHAR scaron
ENCODING 353
SWIDTH 578 0
DWIDTH 7 0
BBX 7 11 0 0
BITMAP
01CCDA00
04EA9F00
01F9AB00
3CFFFF20
DF5DDEC0
FF499EE0
FFECA8F0
FFCB98F0
FFBAAEE0
DFFFFFC0
3CFFFB20
ENDCHAR
STARTCHAR Tcommaaccent
ENCODING 354
SWIDTH 578 0
DWIDTH 7 0
BBX 7 8 0 0
BITMAP
3C887820
DFD6CEC0
FFF7DFE0
FFF7DFF0
FFF7DFF0
FFFAEFE0
DFF8CFC0
3CFEFB20
ENDCHAR
STARTCHAR tcommaaccent
ENCODING 355
SWIDTH 578 0
DWIDTH 7 0
BBX 7 8 0 0
BITMAP
3C887820
DFD6CEC0
FFF7DFE0
FFF7DFF0
FFF7DFF0
FFFAEFE0
DFF8CFC0
3CFEFB20
ENDCHAR
STARTCHAR Tcaron
ENCODING 356
SWIDTH 578 0
DWIDTH 7 0
BBX 7 11 0 0
BITMAP
03DBD800
06DB9C00
03F7C900
3CFFFC20
DFD6CEC0
FFF7DFE0
FFF7DFF0
FFF7DFF0
FFFCEFE0
DFFFFFC0
3CFFFB20
ENDCHAR
STARTCHAR tcaron
ENCODING 357
SWIDTH 578 0
DWIDTH 7 0
BBX 7 8 0 0
BITMAP
3C887820
DFD68AC0
FFF7AAE0
FFF7DFF0
FFF7DFF0
FFFCEFE0
DFFFFFC0
3CFFFB20
ENDCHAR
STARTCHAR Tbar
ENCODING 358
SWIDTH 578 0
DWIDTH 7 0
BBX 7 8 0 0
BITMAP
3C887820
DFD6CEC0
FFE5BFE0
FFE5AFF0
FFF7DFF0
FFFCEFE0
DFFFFFC0
3CFFFB20
ENDCHAR
STARTCHAR tbar
ENCODING 359
SWIDTH 578 0
DWIDTH 7 0
BBX 7 8 0 0
BITMAP
3C887820
DFD6CEC0
FFE5BFE0
FFE5AFF0
FFF7DFF0
FFFCEFE0
DFFFFFC0
3CFFFB20
ENDCHAR
STARTCHAR Utilde
ENCODING 360
SWIDTH 578 0
DWIDTH 7 0
BBX 7 12 0 0
BITMAP
018CB400
09FFFF20
0CB88F40
06DECD10
3BBFE720
DD8FE7C0
FD8FE7E0
FD8FE7F0
FE5BA7F0
FFBAAEE0
DFFFFFC0
3CFFFB20
ENDCHAR
STARTCHAR utilde
ENCODING 361
SWIDTH 578 0
DWIDTH 7 0
BBX 7 12 0 0
BITMAP
018CB400
08FFFF20
0BB88F50
06DFCE10
3BBFE720
DD8FE7C0
FD8FE7E0
FD8FE7F0
FE5BA7F0
FFBAAEE0
DFFFFFC0
3CFFFB20
ENDCHAR
STARTCHAR Umacron
ENCODING 362
SWIDTH 578 0
DWIDTH 7 0
BBX 7 12 0 0
BITMAP
00476100
07FFFE10
0CB57F50
05FFFC10
3BBFE720
DD8FE7C0
FD8FE7E0
FD8FE7F0
FE5BA7F0
FFBAAEE0
DFFFFFC0
3CFFFB20
ENDCHAR
STARTCHAR umacron
ENCODING 363
SWIDTH 578 0
DWIDTH 7 0
BBX 7 12 0 0
BITMAP
00476100
07FFFE10
0CB57F50
05FFFC10
3BBFE720
DD8FE7C0
FD8FE7E0
FD8FE7F0
FE5BA7F0
FFBAAEE0
DFFFFFC0
3CFFFB20
ENDCHAR
STARTCHAR Ubreve
ENCODING 364
SWIDTH 578 0
DWIDTH 7 0
BBX 7 12 0 0
BITMAP
00476100
07FFFE10
0CC98F50
05FCEC10
3BBFE720
DD8FE7C0
FD8FE7E0
FD8FE7F0
FE5BA7F0
FFBAAEE0
DFFFFFC0
3CFFFB20
ENDCHAR
STARTCHAR ubreve
ENCODING 365
SWIDTH 578 0
DWIDTH 7 0
BBX 7 12 0 0
BITMAP
00376100
07FFFE20
0BD98F50
05FCEC10
3BBFE720
DD8FE7C0
FD8FE7E0
FD8FE7F0
FE5BA7F0
FFBAAEE0
DFFFFFC0
3CFFFB20
ENDCHAR
STARTCHAR Uring
ENCODING 366
SWIDTH 578 0
DWIDTH 7 0
BBX 7 12 0 0
BITMAP
005A8100
04E8AA00
07B97D00
04FDEA00
3BBFE720
DD8FE7C0
FD8FE7E0
FD8FE7F0
FE5BA7F0
FFBAAEE0
DFFFFFC0
3CFFFB20
ENDCHAR
STARTCHAR uring
ENCODING 367
SWIDTH 578 0
DWIDTH 7 0
BBX 7 12 0 0
BITMAP
005A8100
04E8AA00
07B97E00
04FDEA00
3BBFE720
DD8FE7C0
FD8FE7E0
FD8FE7F0
FE5BA7F0
FFBAAEE0
DFFFFFC0
3CFFFB20
ENDCHAR
STARTCHAR Uhungarumlaut
ENCODING 368
SWIDTH 581 0
DWIDTH 7 0
BBX 7 12 0 0
BITMAP
00002200
000DFF70
007CA8D0
00EABE60
3BFFFF20
DD8FE7C0
FD8FE7E0
FD8FE7F0
FE5BA7F0
FFBAAEE0
DFFFFFC0
3CFFFB20
ENDCHAR
STARTCHAR uhungarumlaut
ENCODING 369
SWIDTH 582 0
DWIDTH 7 0
BBX 7 12 0 0
BITMAP
00002200
000DFF70
007DA8D0
00EABE60
3BFFFF20
DD8FE7C0
FD8FE7E0
FD8FE7F0
FE5BA7F0
FFBAAEE0
DFFFFFC0
3CFFFB20
ENDCHAR
STARTCHAR Uogonek
ENCODING 370
SWIDTH 578 0
DWIDTH 7 0
BBX 7 8 0 0
BITMAP
3BBFE720
DD8FE7C0
FD8FE7E0
FD8FE7F0
FE5BA7F0
FFB59EE0
DFF6DFC0
3CFEDB20
ENDCHAR
STARTCHAR uogonek
ENCODING 371
SWIDTH 578 0
DWIDTH 7 0
BBX 7 8 0 0
BITMAP
3BBFE720
DD8FE7C0
FD8FE7E0
FD8FE7F0
FE5BA7F0
FFB59EE0
DFF6DFC0
3CFEDB20
ENDCHAR
STARTCHAR Wcircumflex
ENCODING 372
SWIDTH 578 0
DWIDTH 7 0
BBX 7 12 0 0
BITMAP
00031000
00AED000
02F5D500
07CDAA00
3CFFFE20
D6E3E5C0
F7D1C5E0
F99596F0
FB4A47F0
FFAFBEE0
DFFFFFC0
3CFFFB20
ENDCHAR
STARTCHAR wcircumflex
ENCODING 373
SWIDTH 578 0
DWIDTH 7 0
BBX 7 12 0 0
BITMAP
00031000
00AED000
02F5D500
07CDAA00
3CFFFE20
D6E3E5C0
F7D1C5E0
F99596F0
FB4A47F0
FFAFBEE0
DFFFFFC0
3CFFFB20
ENDCHAR
STARTCHAR Ycircumflex
ENCODING 374
SWIDTH 578 0
DWIDTH 7 0
BBX 7 12 0 0
BITMAP
00032000
008EE100
01F7C700
06DC9C00
3FFFFF20
DF6D6DC0
FFC75FE0
FFF3BFF0
FFF6EFF0
FFFCFFE0
DFFFFFC0
3CFFFB20
ENDCHAR
STARTCHAR ycircumflex
ENCODING 375
SWIDTH 578 0
DWIDTH 7 0
BBX 7 12 0 0
BITMAP
00032000
008EE100
01F7C700
06DC9C00
3FFFFF20
DF6D6DC0
FFC75FE0
FFF3BFF0
FFF6EFF0
FFFCFFE0
DFFFFFC0
3CFFFB20
ENDCHAR
STARTCHAR Ydieresis
ENCODING 376
SWIDTH 578 0
DWIDTH 7 0
BBX 7 11 0 0
BITMAP
00365000
04FFFC00
08AC7F10
3EFFFF20
DF6D6DC0
FFC75FE0
FFF3BFF0
FFF6EFF0
FFFCFFE0
DFFFFFC0
3CFFFB20
ENDCHAR
STARTCHAR Zacute
ENCODING 377
SWIDTH 578 0
DWIDTH 7 0
BBX 7 12 0 0
BITMAP
006FE400
00D7E700
01F8E100
01CD6000
3CA88B20
DFED4FC0
FFF8CFE0
FFE6FFF0
FF69BEF0
FFCAAEE0
DFFFFFC0
3CFFFB20
ENDCHAR
STARTCHAR zacute
ENCODING 378
SWIDTH 578 0
DWIDTH 7 0
BBX 7 12 0 0
BITMAP
006FE400
00D7E700
01F8E100
01CD6000
3CA88B20
DFED4FC0
FFF8CFE0
FFE6FFF0
FF69BEF0
FFCAAEE0
DFFFFFC0
3CFFFB20
ENDCHAR
STARTCHAR Zdotaccent
ENCODING 379
SWIDTH 578 0
DWIDTH 7 0
BBX 7 12 0 0
BITMAP
00575000
0CFFFB00
1FF6FF00
0BEEEA00
3CA88B20
DFED4FC0
FFF8CFE0
FFE6FFF0
FF69BEF0
FFCAAEE0
DFFFFFC0
3CFFFB20
ENDCHAR
STARTCHAR zdotaccent
ENCODING 380
SWIDTH 578 0
DWIDTH 7 0
BBX 7 12 0 0
BITMAP
00575000
0CFFFB00
1FF6FF00
0BEEEA00
3CA88B20
DFED4FC0
FFF8CFE0
FFE6FFF0
FF69BEF0
FFCAAEE0
DFFFFFC0
3CFFFB20
ENDCHAR
STARTCHAR Zcaron
ENCODING 381
SWIDTH 578 0
DWIDTH 7 0
BBX 7 11 0 0
BITMAP
04DBD600
08BCAA00
05F6E700
3CFFFE20
DFED4FC0
FFF8CFE0
FFE6FFF0
FF69BEF0
FFCAAEE0
DFFFFFC0
3CFFFB20
ENDCHAR
STARTCHAR zcaron
ENCODING 382
SWIDTH 578 0
DWIDTH 7 0
BBX 7 11 0 0
BITMAP
04DBD600
08BCAA00
05F6E700
3CFFFE20
DFED4FC0
FFF8CFE0
FFE6FFF0
FF69BEF0
FFCAAEE0
DFFFFFC0
3CFFFB20
ENDCHAR
STARTCHAR longs
ENCODING 383
SWIDTH 578 0
DWIDTH 7 0
BBX 7 8 0 0
BITMAP
3CFDEB20
DF7A7DC0
FCBDF9E0
FE88BBF0
FFD9DFF0
FFFFFFE0
DFFFFFC0
3CFFFB20
ENDCHAR
STARTCHAR florin
ENCODING 402
SWIDTH 578 0
DWIDTH 7 0
BBX 7 8 0 0
BITMAP
3CFAAB20
DFE6EFC0
FFB4DFE0
FFD6EFF0
FFE7FFF0
FFD7FFE0
DF8DFFC0
3CFFFB20
ENDCHAR
STARTCHAR uni01CD
ENCODING 461
SWIDTH 578 0
DWIDTH 7 0
BBX 7 11 0 0
BITMAP
03DBD800
07DC9C00
03F7D900
3CFFFF20
DF5D7DC0
FF5FABE0
FE3759F0
FC8FC8F0
FEDFECE0
DFFFFFC0
3CFFFB20
ENDCHAR
STARTCHAR uni01CE
ENCODING 462
SWIDTH 578 0
DWIDTH 7 0
BBX 7 11 0 0
BITMAP
02CCD900
05EA9D00
02F8BA00
3CFFFF20
DFDD7EC0
FFDC7EE0
FC594EF0
FC7B6EF0
FFBAAFE0
DFFFFFC0
3CFFFB20
ENDCHAR
STARTCHAR uni01CF
ENCODING 463
SWIDTH 578 0
DWIDTH 7 0
BBX 7 11 0 0
BITMAP
02CCDA00
04EA9E00
01F9BB00
3CFFFD20
DFD6CEC0
FFF7DFE0
FFF7DFF0
FFB5ADF0
FFAAADE0
DFFFFFC0
3CFFFB20
ENDCHAR
STARTCHAR uni01D0
ENCODING 464
SWIDTH 578 0
DWIDTH 7 0
BBX 7 11 0 0
BITMAP
02CCD900
05EA9E00
01F8BB00
3CFFFD20
DFD6CEC0
FFF7DFE0
FFF7DFF0
FFB5ADF0
FFAAADE0
DFFFFFC0
3CFFFB20
ENDCHAR
STARTCHAR uni01D1
ENCODING 465
SWIDTH 578 0
DWIDTH 7 0
BBX 7 11 0 0
BITMAP
02CCD900
05EA9D00
02F8BA00
3CFFFE20
DE6DC7C0
FE7FE6E0
FE7FE6F0
FE5BA7F0
FFBAAEE0
DFFFFFC0
3CFFFB20
ENDCHAR
STARTCHAR uni01D3
ENCODING 467
SWIDTH 578 0
DWIDTH 7 0
BBX 7 11 0 0
BITMAP
02CCD900
05EA9E00
02F8BB00
3BFFFC20
DD8FE7C0
FD8FE7E0
FD8FE7F0
FE5BA7F0
FFBAAEE0
DFFFFFC0
3CFFFB20
ENDCHAR
STARTCHAR uni01D4
ENCODING 468
SWIDTH 578 0
DWIDTH 7 0
BBX 7 11 0 0
BITMAP
02CCD900
05EA9E00
01F8BB00
3BFFFC20
DD8FE7C0
FD8FE7E0
FD8FE7F0
FE5BA7F0
FFBAAEE0
DFFFFFC0
3CFFFB20
ENDCHAR
STARTCHAR uni0200
ENCODING 512
SWIDTH 578 0
DWIDTH 7 0
BBX 7 12 0 0
BITMAP
01110000
1DFF6000
5CA8E100
0DADD700
3FFFFF20
DF5D7DC0
FF5FABE0
FE3759F0
FC8FC8F0
FEDFECE0
DFFFFFC0
3CFFFB20
ENDCHAR
STARTCHAR uni0201
ENCODING 513
SWIDTH 578 0
DWIDTH 7 0
BBX 7 12 0 0
BITMAP
01110000
1DFF6000
5CA8E100
0DADD700
3FFFFF20
DFDD7EC0
FFDC7EE0
FC594EF0
FC7B6EF0
FFBAAFE0
DFFFFFC0
3CFFFB20
ENDCHAR
STARTCHAR uni0202
ENCODING 514
SWIDTH 578 0
DWIDTH 7 0
BBX 7 12 0 0
BITMAP
00010000
04DFF800
0DE8BF30
0BCEBE10
3DFDEE20
DF5D7DC0
FF5FABE0
FE3759F0
FC8FC8F0
FEDFECE0
DFFFFFC0
3CFFFB20
ENDCHAR
STARTCHAR uni0203
ENCODING 515
SWIDTH 578 0
DWIDTH 7 0
BBX 7 12 0 0
BITMAP
00010000
04DFF800
0DE8BF30
0BCEBE10
3DEDEE20
DFDD7EC0
FFDC7EE0
FC594EF0
FC7B6EF0
FFBAAFE0
DFFFFFC0
3CFFFB20
ENDCHAR
STARTCHAR uni0204
ENCODING 516
SWIDTH 578 0
DWIDTH 7 0
BBX 7 12 0 0
BITMAP
01110000
1DFF6000
5CA8E100
0DADD700
3FFFFF20
DF6DDFC0
FF69AFE0
FF6CCFF0
FF6BBEF0
FFCAADE0
DFFFFFC0
3CFFFB20
ENDCHAR
STARTCHAR uni0205
ENCODING 517
SWIDTH 578 0
DWIDTH 7 0
BBX 7 12 0 0
BITMAP
01110000
1DFF6000
5CA8E100
0DADD700
3FFFFF20
DC8D6DC0
FC364DE0
FC9FFFF0
FD488FF0
FFEDDFE0
DFFFFFC0
3CFFFB20
ENDCHAR
STARTCHAR uni0206
ENCODING 518
SWIDTH 578 0
DWIDTH 7 0
BBX 7 12 0 0
BITMAP
00010000
04DFF800
0DE8BF30
0BCEBE10
3DFDDC20
DF6DDFC0
FF69AFE0
FF6CCFF0
FF6BBEF0
FFCAADE0
DFFFFFC0
3CFFFB20
ENDCHAR
STARTCHAR uni0207
ENCODING 519
SWIDTH 578 0
DWIDTH 7 0
BBX 7 12 0 0
BITMAP
00010000
04DFF800
0DE8BF30
0BCEBE10
3CEDEE20
DC8D6DC0
FC364DE0
FC9FFFF0
FD488FF0
FFEDDFE0
DFFFFFC0
3CFFFB20
ENDCHAR
STARTCHAR uni0208
ENCODING 520
SWIDTH 578 0
DWIDTH 7 0
BBX 7 12 0 0
BITMAP
01110000
1DFF6000
5CA8E100
0DADD700
3FFFFE20
DFD6CEC0
FFF7DFE0
FFF7DFF0
FFB5ADF0
FFAAADE0
DFFFFFC0
3CFFFB20
ENDCHAR
STARTCHAR uni0209
ENCODING 521
SWIDTH 578 0
DWIDTH 7 0
BBX 7 12 0 0
BITMAP
01110000
1DFF6000
5CA8E100
0DADD700
3FFFFE20
DFD6CEC0
FFF7DFE0
FFF7DFF0
FFB5ADF0
FFAAADE0
DFFFFFC0
3CFFFB20
ENDCHAR
STARTCHAR uni020A
ENCODING 522
SWIDTH 578 0
DWIDTH 7 0
BBX 7 12 0 0
BITMAP
00010000
04DFF800
0DE8BF30
0BCEBE10
3DEDDA20
DFD6CEC0
FFF7DFE0
FFF7DFF0
FFB5ADF0
FFAAADE0
DFFFFFC0
3CFFFB20
ENDCHAR
STARTCHAR uni020B
ENCODING 523
SWIDTH 578 0
DWIDTH 7 0
BBX 7 12 0 0
BITMAP
00010000
04DFF800
0DE8BF30
0BCEBE10
3DEDDA20
DFD6CEC0
FFF7DFE0
FFF7DFF0
FFB5ADF0
FFAAADE0
DFFFFFC0
3CFFFB20
ENDCHAR
STARTCHAR uni020C
ENCODING 524
SWIDTH 578 0
DWIDTH 7 0
BBX 7 12 0 0
BITMAP
01110000
1DFF6000
5CA8E100
0DADD700
3FFFFF20
DE6DC7C0
FE7FE6E0
FE7FE6F0
FE5BA7F0
FFBAAEE0
DFFFFFC0
3CFFFB20
ENDCHAR
STARTCHAR uni020D
ENCODING 525
SWIDTH 578 0
DWIDTH 7 0
BBX 7 12 0 0
BITMAP
01110000
1DFF6000
5CA8E100
0DADD700
3FFFFF20
DE6DC7C0
FE7FE6E0
FE7FE6F0
FE5BA7F0
FFBAAEE0
DFFFFFC0
3CFFFB20
ENDCHAR
STARTCHAR uni020E
ENCODING 526
SWIDTH 578 0
DWIDTH 7 0
BBX 7 12 0 0
BITMAP
00010000
04DFF800
0DE8BF30
0BCEBE10
3DFDDC20
DE6DC7C0
FE7FE6E0
FE7FE6F0
FE5BA7F0
FFBAAEE0
DFFFFFC0
3CFFFB20
ENDCHAR
STARTCHAR uni020F
ENCODING 527
SWIDTH 578 0
DWIDTH 7 0
BBX 7 12 0 0
BITMAP
00010000
04DFF800
0DE8BF30
0BCEBE10
3DFDDC20
DE6DC7C0
FE7FE6E0
FE7FE6F0
FE5BA7F0
FFBAAEE0
DFFFFFC0
3CFFFB20
ENDCHAR
STARTCHAR uni0210
ENCODING 528
SWIDTH 578 0
DWIDTH 7 0
BBX 7 12 0 0
BITMAP
01110000
1DFF6000
5CA8E100
0DADD700
3FFFFF20
DF5D7CC0
FF4C7DE0
FF496DF0
FF6FABF0
FFCFDDE0
DFFFFFC0
3CFFFB20
ENDCHAR
STARTCHAR uni0211
ENCODING 529
SWIDTH 578 0
DWIDTH 7 0
BBX 7 12 0 0
BITMAP
01110000
1DFF6000
5CA8E100
0DADD700
3FFFFF20
DF5D7CC0
FF4C7DE0
FF496DF0
FF6FABF0
FFCFDDE0
DFFFFFC0
3CFFFB20
ENDCHAR
STARTCHAR uni0212
ENCODING 530
SWIDTH 578 0
DWIDTH 7 0
BBX 7 12 0 0
BITMAP
00010000
04DFF800
0DE8BF30
0BCEBE10
3DDDEE20
DF5D7CC0
FF4C7DE0
FF496DF0
FF6FABF0
FFCFDDE0
DFFFFFC0
3CFFFB20
ENDCHAR
STARTCHAR uni0213
ENCODING 531
SWIDTH 578 0
DWIDTH 7 0
BBX 7 12 0 0
BITMAP
00010000
04DFF800
0DE8BF30
0BCEBE10
3DDDEE20
DF5D7CC0
FF4C7DE0
FF496DF0
FF6FABF0
FFCFDDE0
DFFFFFC0
3CFFFB20
ENDCHAR
STARTCHAR uni0214
ENCODING 532
SWIDTH 578 0
DWIDTH 7 0
BBX 7 12 0 0
BITMAP
01110000
1DFF6000
5CA8E100
0DADD700
3EFFFD20
DD8FE7C0
FD8FE7E0
FD8FE7F0
FE5BA7F0
FFBAAEE0
DFFFFFC0
3CFFFB20
ENDCHAR
STARTCHAR uni0215
ENCODING 533
SWIDTH 578 0
DWIDTH 7 0
BBX 7 12 0 0
BITMAP
01110000
1DFF6000
5CA8E100
0DADD700
3EFFFD20
DD8FE7C0
FD8FE7E0
FD8FE7F0
FE5BA7F0
FFBAAEE0
DFFFFFC0
3CFFFB20
ENDCHAR
STARTCHAR uni0216
ENCODING 534
SWIDTH 578 0
DWIDTH 7 0
BBX 7 12 0 0
BITMAP
00010000
04DFF800
0DE8BF30
0BCEBE10
3CFFFA20
DD8FE7C0
FD8FE7E0
FD8FE7F0
FE5BA7F0
FFBAAEE0
DFFFFFC0
3CFFFB20
ENDCHAR
STARTCHAR uni0217
ENCODING 535
SWIDTH 578 0
DWIDTH 7 0
BBX 7 12 0 0
BITMAP
00010000
04DFF800
0DE8BF30
0BCEBE10
3CFFFA20
DD8FE7C0
FD8FE7E0
FD8FE7F0
FE5BA7F0
FFBAAEE0
DFFFFFC0
3CFFFB20
ENDCHAR
STARTCHAR uni0218
ENCODING 536
SWIDTH 578 0
DWIDTH 7 0
BBX 7 8 0 0
BITMAP
3CA87A20
DF5DDEC0
FF499EE0
FFECA8F0
FFCB98F0
FFB79EE0
DFF7DFC0
3CFEFB20
ENDCHAR
STARTCHAR uni0219
ENCODING 537
SWIDTH 578 0
DWIDTH 7 0
BBX 7 8 0 0
BITMAP
3CA87A20
DF5DDEC0
FF499EE0
FFECA8F0
FFCB98F0
FFB79EE0
DFF7DFC0
3CFEFB20
ENDCHAR
STARTCHAR uni021A
ENCODING 538
SWIDTH 578 0
DWIDTH 7 0
BBX 7 8 0 0
BITMAP
3C887820
DFD6CEC0
FFF7DFE0
FFF7DFF0
FFF7DFF0
FFFAEFE0
DFF8CFC0
3CFEFB20
ENDCHAR
STARTCHAR uni021B
ENCODING 539
SWIDTH 578 0
DWIDTH 7 0
BBX 7 8 0 0
BITMAP
3C887820
DFD6CEC0
FFF7DFE0
FFF7DFF0
FFF7DFF0
FFFAEFE0
DFF8CFC0
3CFEFB20
ENDCHAR
STARTCHAR circumflex
ENCODING 710
SWIDTH 355 0
DWIDTH 4 0
BBX 5 5 0 0
BITMAP
023000
3EE600
9A8D00
E9AE30
ACCB20
ENDCHAR
STARTCHAR caron
ENCODING 711
SWIDTH 355 0
DWIDTH 4 0
BBX 5 4 0 0
BITMAP
ADCD10
F9AE40
BA8F10
5BB900
ENDCHAR
STARTCHAR breve
ENCODING 728
SWIDTH 428 0
DWIDTH 5 0
BBX 6 4 0 0
BITMAP
057500
AFFFC0
FAA9F2
8FBEA0
ENDCHAR
STARTCHAR dotaccent
ENCODING 729
SWIDTH 428 0
DWIDTH 5 0
BBX 6 4 0 0
BITMAP
057500
AFFFC0
FF6FF2
ADDDB0
ENDCHAR
STARTCHAR ring
ENCODING 730
SWIDTH 368 0
DWIDTH 4 0
BBX 5 4 0 0
BITMAP
19A400
BA8E30
F78D60
CEDF30
ENDCHAR
STARTCHAR ogonek
ENCODING 731
SWIDTH 101 0
DWIDTH 1 0
BBX 2 2 0 -2
BITMAP
80
92
ENDCHAR
STARTCHAR tilde
ENCODING 732
SWIDTH 428 0
DWIDTH 5 0
BBX 6 4 0 0
BITMAP
2ACA30
CFFFD0
F999F1
9DDDB0
ENDCHAR
STARTCHAR hungarumlaut
ENCODING 733
SWIDTH 419 0
DWIDTH 5 0
BBX 5 5 0 0
BITMAP
002200
0CFF70
6DA8E0
DACD70
BCCA00
ENDCHAR
STARTCHAR uni030F
ENCODING 783
SWIDTH 419 0
DWIDTH 5 0
BBX 5 5 0 0
BITMAP
022000
7FFC00
D8AD70
6EBAE0
09CCB0
ENDCHAR
STARTCHAR mu
ENCODING 956
SWIDTH 578 0
DWIDTH 7 0
BBX 7 8 0 0
BITMAP
3BBFE720
DD8FE7C0
FD8FE7E0
FD8FE7F0
FD6BA7F0
FE7AAEE0
DFFFFFC0
3CFFFB20
ENDCHAR
STARTCHAR pi
ENCODING 960
SWIDTH 578 0
DWIDTH 7 0
BBX 7 8 0 0
BITMAP
3CB9AB20
D99898C0
F98F8CB0
EB796EA0
F8AFA9D0
FD899CE0
DFFFFFC0
3CFFFB20
ENDCHAR
STARTCHAR uni1E60
ENCODING 7776
SWIDTH 578 0
DWIDTH 7 0
BBX 7 11 0 0
BITMAP
00376100
06FFFE20
0BF9DF60
3FFFFF40
DF5DDEC0
FF499EE0
FFECA8F0
FFCB98F0
FFBAAEE0
DFFFFFC0
3CFFFB20
ENDCHAR
STARTCHAR uni1E8E
ENCODING 7822
SWIDTH 578 0
DWIDTH 7 0
BBX 7 11 0 0
BITMAP
00476100
08FFFE10
0CF8EF40
3FFFFF30
DF6D6DC0
FFC75FE0
FFF3BFF0
FFF6EFF0
FFFCFFE0
DFFFFFC0
3CFFFB20
ENDCHAR
STARTCHAR uni1E8F
ENCODING 7823
SWIDTH 578 0
DWIDTH 7 0
BBX 7 11 0 0
BITMAP
00476100
08FFFE10
0CF8EF40
3FFFFF30
DF6D6DC0
FFC75FE0
FFF3BFF0
FFF6EFF0
FFFCFFE0
DFFFFFC0
3CFFFB20
ENDCHAR
STARTCHAR uni1EBC
ENCODING 7868
SWIDTH 578 0
DWIDTH 7 0
BBX 7 12 0 0
BITMAP
018CB400
09FFFF20
0CB88F40
06DECD10
3CA87A20
DF6DDFC0
FF69AFE0
FF6CCFF0
FF6BBEF0
FFCAADE0
DFFFFFC0
3CFFFB20
ENDCHAR
STARTCHAR uni1EF8
ENCODING 7928
SWIDTH 578 0
DWIDTH 7 0
BBX 7 12 0 0
BITMAP
019CB400
09FFFF20
0CA98F40
07DECD10
3C9FC820
DF6D6DC0
FFC75FE0
FFF3BFF0
FFF6EFF0
FFFCFFE0
DFFFFFC0
3CFFFB20
ENDCHAR
STARTCHAR uni1EF9
ENCODING 7929
SWIDTH 578 0
DWIDTH 7 0
BBX 7 12 0 0
BITMAP
019CB400
09FFFF20
0CA98F40
07DECD10
3C9FC820
DF6D6DC0
FFC75FE0
FFF3BFF0
FFF6EFF0
FFFCFFE0
DFFFFFC0
3CFFFB20
ENDCHAR
STARTCHAR endash
ENCODING 8211
SWIDTH 428 0
DWIDTH 5 0
BBX 6 8 0 0
BITMAP
3CFD40
DFFFE0
FA69F2
FFFFF2
FFFFF2
FFFFF2
DFFFE0
3CEC40
ENDCHAR
STARTCHAR emdash
ENCODING 8212
SWIDTH 428 0
DWIDTH 5 0
BBX 6 8 0 0
BITMAP
3CFD40
DFFFE1
666661
FFFFF2
FFFFF2
FFFFF2
DFFFE0
3CEC40
ENDCHAR
STARTCHAR quoteleft
ENCODING 8216
SWIDTH 428 0
DWIDTH 5 0
BBX 6 8 0 0
BITMAP
3CCD40
DF4EE0
FFFFF2
FFFFF2
FFFFF2
FFFFF2
DFFFE0
3CEC40
ENDCHAR
STARTCHAR quoteright
ENCODING 8217
SWIDTH 428 0
DWIDTH 5 0
BBX 6 8 0 0
BITMAP
3C9C40
DF7FE0
FFFFF2
FFFFF2
FFFFF2
FFFFF2
DFFFE0
3CEC40
ENDCHAR
STARTCHAR quotesinglbase
ENCODING 8218
SWIDTH 428 0
DWIDTH 5 0
BBX 6 8 0 0
BITMAP
3CFD40
DFFFE0
FFFFF2
FFFFF2
FFAFF2
FF6FF2
DFFFE0
3CEC40
ENDCHAR
STARTCHAR quotedblleft
ENCODING 8220
SWIDTH 428 0
DWIDTH 5 0
BBX 6 8 0 0
BITMAP
3BCA40
D948E0
FFFFF2
FFFFF2
FFFFF2
FFFFF2
DFFFE0
3CEC40
ENDCHAR
STARTCHAR quotedblright
ENCODING 8221
SWIDTH 428 0
DWIDTH 5 0
BBX 6 8 0 0
BITMAP
3A9740
DE78E0
FFFFF2
FFFFF2
FFFFF2
FFFFF2
DFFFE0
3CEC40
ENDCHAR
STARTCHAR quotedblbase
ENCODING 8222
SWIDTH 428 0
DWIDTH 5 0
BBX 6 8 0 0
BITMAP
3CFD40
DFFFE0
FFFFF2
FFFFF2
FDABF2
FD67F2
DFFFE0
3CEC40
ENDCHAR
STARTCHAR dagger
ENCODING 8224
SWIDTH 578 0
DWIDTH 7 0
BBX 7 8 0 0
BITMAP
3CFBEB20
DFD37FC0
FFF7CFE0
FFF7DFF0
FFF7DFF0
FFFCEFE0
DFFFFFC0
3CFFFB20
ENDCHAR
STARTCHAR daggerdbl
ENCODING 8225
SWIDTH 578 0
DWIDTH 7 0
BBX 7 8 0 0
BITMAP
3CFBEB20
DFD37FC0
FFF7CFE0
FFF6CFF0
FFD48FF0
FFFCEFE0
DFFFFFC0
3CFFFB20
ENDCHAR
STARTCHAR bullet
ENCODING 8226
SWIDTH 578 0
DWIDTH 7 0
BBX 7 8 0 0
BITMAP
3CFFFB20
DF412CC0
FE0008E0
FE0008F0
FF200BF0
FFFDEFE0
DFFFFFC0
3CFFFB20
ENDCHAR
STARTCHAR ellipsis
ENCODING 8230
SWIDTH 578 0
DWIDTH 7 0
BBX 7 8 0 0
BITMAP
3CFFFB20
DFFFFFC0
FFFFFFE0
FFFFFFF0
FCDACEF0
FDDBCEE0
DFFFFFC0
3CFFFB20
ENDCHAR
STARTCHAR perthousand
ENCODING 8240
SWIDTH 640 0
DWIDTH 8 0
BBX 8 8 0 0
BITMAP
39FEFEA1
5687FFF8
B56BFFFA
FF675957
FF664755
FFFFEFEA
DFFFFFF8
3CFFFEA1
ENDCHAR
STARTCHAR guilsinglleft
ENCODING 8249
SWIDTH 578 0
DWIDTH 7 0
BBX 7 8 0 0
BITMAP
3CFFFB20
DFFD9FC0
FFF6FFE0
FFC9FFF0
FFF8DFF0
FFFFAFE0
DFFFFFC0
3CFFFB20
ENDCHAR
STARTCHAR guilsinglright
ENCODING 8250
SWIDTH 578 0
DWIDTH 7 0
BBX 7 8 0 0
BITMAP
3CFFFB20
DFD9FFC0
FFF8CFE0
FFFD7FF0
FFF7EFF0
FFDCFFE0
DFFFFFC0
3CFFFB20
ENDCHAR
STARTCHAR fraction
ENCODING 8260
SWIDTH 428 0
DWIDTH 5 0
BBX 6 8 0 0
BITMAP
3CCB40
DF7DE0
FF6FF2
FF5FF2
FF6FF2
FECFF2
DFFFE0
3CEC40
ENDCHAR
STARTCHAR Euro
ENCODING 8364
SWIDTH 578 0
DWIDTH 7 0
BBX 7 8 0 0
BITMAP
3C888B20
DD7DDFC0
F748FFE0
F748FFF0
FD5BBFF0
FFBAAFE0
DFFFFFC0
3CFFFB20
ENDCHAR
STARTCHAR trademark
ENCODING 8482
SWIDTH 578 0
DWIDTH 7 0
BBX 7 8 0 0
BITMAP
3CFFFB20
DFFFFFC0
FD7ABEE0
FF852EF0
FFEEDFF0
FFFFFFE0
DFFFFFC0
3CFFFB20
ENDCHAR
STARTCHAR product
ENCODING 8719
SWIDTH 578 0
DWIDTH 7 0
BBX 7 8 0 0
BITMAP
3CB9AB20
D9A998C0
F9AD8CB0
EBA87EA0
F8ADF9D0
FD899CE0
DFFFFFC0
3CFFFB20
ENDCHAR
STARTCHAR minus
ENCODING 8722
SWIDTH 428 0
DWIDTH 5 0
BBX 6 8 0 0
BITMAP
3CFD40
DFFFE0
FA69F2
FFFFF2
FFFFF2
FFFFF2
DFFFE0
3CEC40
ENDCHAR
STARTCHAR notequal
ENCODING 8800
SWIDTH 578 0
DWIDTH 7 0
BBX 7 8 0 0
BITMAP
3CFFFB20
DEB86FC0
FE838EE0
FE568EF0
FFEFFFF0
FFFFFFE0
DFFFFFC0
3CFFFB20
ENDCHAR
STARTCHAR uni2706
ENCODING 9990
SWIDTH 578 0
DWIDTH 7 0
BBX 7 8 0 0
BITMAP
3CFCDB20
DFE98FC0
FF4A9FE0
FF3FFFF0
FF87CFF0
FFF86FE0
DFFFFFC0
3CFFFB20
ENDCHAR
STARTCHAR uni2708
ENCODING 9992
SWIDTH 578 0
DWIDTH 7 0
BBX 7 8 0 0
BITMAP
24576420
40080040
32898340
302C3040
30080040
30020040
400C1040
24464420
ENDCHAR
STARTCHAR uniF6D6
ENCODING 63190
SWIDTH 419 0
DWIDTH 5 0
BBX 5 5 0 0
BITMAP
022000
7FFC00
D8AD70
6EBAE0
09CCB0
ENDCHAR
STARTCHAR uFFFF2
ENCODING 1048562
SWIDTH 578 0
DWIDTH 7 0
BBX 7 8 0 0
BITMAP
24353420
40080040
302D3040
32898340
30080040
30132040
400C1040
24464420
ENDCHAR
STARTCHAR uFFFF3
ENCODING 1048563
SWIDTH 578 0
DWIDTH 7 0
BBX 7 8 0 0
BITMAP
24353420
40187040
306C9040
301D6040
3069A140
30063040
40000040
24444420
ENDCHAR
STARTCHAR uFFFF4
ENCODING 1048564
SWIDTH 578 0
DWIDTH 7 0
BBX 7 8 0 0
BITMAP
3CFFFB20
DFD9CFC0
FE98CBE0
FCBDF9F0
FF797EF0
FFFEFFE0
DFFFFFC0
3CFFFB20
ENDCHAR
STARTCHAR uFFFF5
ENCODING 1048565
SWIDTH 578 0
DWIDTH 7 0
BBX 7 8 0 0
BITMAP
3CDCCB20
DFF7FFC0
FD767CE0
FFD3CFF0
FFF7FFF0
FFFDFFE0
DFF3EFC0
3CFCFB20
ENDCHAR
STARTCHAR uFFFF6
ENCODING 1048566
SWIDTH 578 0
DWIDTH 7 0
BBX 7 8 0 0
BITMAP
3CFDFB20
DFF7FFC0
FFD2CFE0
FD767CF0
FFF6FFF0
FFDCDFE0
DFF3EFC0
3CFCFB20
ENDCHAR
STARTCHAR uFFFF8
ENCODING 1048568
SWIDTH 578 0
DWIDTH 7 0
BBX 7 8 0 0
BITMAP
3CFFFB20
DFC5BFC0
FF736FE0
FE728DF0
FE000DF0
FFA48FE0
DFF3EFC0
3CFCFB20
ENDCHAR
STARTCHAR uFFFF9
ENCODING 1048569
SWIDTH 578 0
DWIDTH 7 0
BBX 7 8 0 0
BITMAP
24333420
40262040
31673440
33420640
30868140
30010040
40000040
24444420
ENDCHAR
STARTCHAR uFFFFB
ENCODING 1048571
SWIDTH 578 0
DWIDTH 7 0
BBX 7 8 0 0
BITMAP
3CFBFB20
DFB68FC0
FF939FE0
FFA2AFF0
FFA66FF0
FFF9FFE0
DFFFFFC0
3CFFFB20
ENDCHAR
STARTCHAR uFFFFC
ENCODING 1048572
SWIDTH 578 0
DWIDTH 7 0
BBX 7 8 0 0
BITMAP
3CEBDB20
D87776B0
FC677AE0
FFA89FF0
FFF8FFF0
FFFFFFE0
DFFFFFC0
3CFFFB20
ENDCHAR
STARTCHAR uFFFFD
ENCODING 1048573
SWIDTH 578 0
DWIDTH 7 0
BBX 7 8 0 0
BITMAP
3CFDFB20
DF403FC0
FD102CE0
FF838EF0
FF948FF0
FFD9DFE0
DFF3EFC0
3CFCFB20
ENDCHAR
STARTCHAR uFFFFE
ENCODING 1048574
SWIDTH 578 0
DWIDTH 7 0
BBX 7 8 0 0
BITMAP
3CEFEB20
D68676C0
F776C8E0
F8E4C8F0
FA8C89F0
FFFFFFE0
DFFFFFC0
3CFFFB20
ENDCHAR
STARTCHAR uFFFFF
ENCODING 1048575
SWIDTH 578 0
DWIDTH 7 0
BBX 7 8 0 0
BITMAP
24454420
40BFC040
32EFD340
307C7140
306B7040
30262040
400C1040
24464420
ENDCHAR
STARTCHAR .notdef
ENCODING -1
SWIDTH 1000 0
DWIDTH 12 0
BBX 1 1 0 0
BITMAP
00
ENDCHAR
STARTCHAR glyph1
ENCODING -1
SWIDTH 0 0
DWIDTH 0 0
BBX 1 1 0 0
BITMAP
00
ENDCHAR
ENDFONT
